STARTFONT 2.1
FONT -MIT-114VSG KST-Medium-R-Normal--112-40-200-200-P-90-ISO8859-1
SIZE 40 200 200
FONTBOUNDINGBOX 171 112 0 -12
STARTPROPERTIES 17
ADD_STYLE_NAME ""
AVERAGE_WIDTH 90
CHARSET_ENCODING "1"
CHARSET_REGISTRY "ISO8859"
DEFAULT_CHAR 0
FAMILY "114VSG KST"
FONT_ASCENT 100
FONT_DESCENT 12
FOUNDRY "MIT"
PIXEL_SIZE 112
POINT_SIZE 40
RESOLUTION_X 200
RESOLUTION_Y 200
SETWIDTH_NAME "Normal"
SLANT "R"
SPACING "P"
WEIGHT_NAME "Medium"
ENDPROPERTIES
CHARS 51
STARTCHAR char24
ENCODING 24
SWIDTH 2225 0
DWIDTH 89 0
BBX 79 112 0 -12
BITMAP
00000000000000000000
00000000000000000000
00000000000000000000
00000000000000000000
00000000000000000000
00000000000000000000
00000000000000000000
00000000000000000000
00000000000000000000
00000000000000000000
00000000000000000000
00000000000000000000
00000000000000000000
00000000000000000000
00000000000180000000
00000000000380000000
00000000000780000000
00000000000F80000000
00000000001F80000000
00000000003F80000000
00000000007F80000000
0000000003FF80000000
0000000007FF80000000
000000000FFFC0000000
000000001FFFC0000000
00000000FFFFC0000000
00000001FFFFC0000000
00000003FFFFC0000000
00000007FFFFC0000000
0000003FFFFFC0000000
0000007FFFFFF0000000
000003FFFFFFFFFFFFF8
000007FFFFFFFFFFFFFE
00003FFFFFFFFFFFFFFE
00007FFFFFFFFFFFFFFE
0003FFFFFFFFFFFFFFFE
0007FFFFFFFFFFFFFFFE
003FFFFFFFFFFFFFFFFE
007FFFFFFFFFFFFFFFF0
0FFE0000000000000000
1FE00000000000000000
FC000000000000000000
FC000000000000000000
FC000000000000000000
FC000000000000000000
1FE00000000000000000
0FFF8000000000000000
007FFFFFFFFFFFFFFFC0
003FFFFFFFFFFFFFFFFE
0007FFFFFFFFFFFFFFFE
0003FFFFFFFFFFFFFFFE
00007FFFFFFFFFFFFFFE
00003FFFFFFFFFFFFFFE
000007FFFFFFFFFFFFFE
000003FFFFFFFFFFFFFC
0000007FFFFFE0000000
0000003FFFFFC0000000
00000007FFFFC0000000
00000003FFFFC0000000
00000001FFFFC0000000
00000000FFFFC0000000
000000001FFFC0000000
000000000FFFC0000000
0000000007FFC0000000
0000000003FFC0000000
00000000007F80000000
00000000003F80000000
00000000001F80000000
00000000000F80000000
00000000000780000000
00000000000380000000
00000000000180000000
00000000000000000000
00000000000000000000
00000000000000000000
00000000000000000000
00000000000000000000
00000000000000000000
00000000000000000000
00000000000000000000
00000000000000000000
00000000000000000000
00000000000000000000
00000000000000000000
00000000000000000000
00000000000000000000
00000000000000000000
00000000000000000000
00000000000000000000
00000000000000000000
00000000000000000000
00000000000000000000
00000000000000000000
00000000000000000000
00000000000000000000
00000000000000000000
00000000000000000000
00000000000000000000
00000000000000000000
00000000000000000000
00000000000000000000
00000000000000000000
00000000000000000000
00000000000000000000
00000000000000000000
00000000000000000000
00000000000000000000
00000000000000000000
00000000000000000000
00000000000000000000
00000000000000000000
00000000000000000000
ENDCHAR
STARTCHAR char32
ENCODING 32
SWIDTH 1950 0
DWIDTH 78 0
BBX 1 112 0 -12
BITMAP
00
00
00
00
00
00
00
00
00
00
00
00
00
00
00
00
00
00
00
00
00
00
00
00
00
00
00
00
00
00
00
00
00
00
00
00
00
00
00
00
00
00
00
00
00
00
00
00
00
00
00
00
00
00
00
00
00
00
00
00
00
00
00
00
00
00
00
00
00
00
00
00
00
00
00
00
00
00
00
00
00
00
00
00
00
00
00
00
00
00
00
00
00
00
00
00
00
00
00
00
00
00
00
00
00
00
00
00
00
00
00
00
ENDCHAR
STARTCHAR char33
ENCODING 33
SWIDTH 975 0
DWIDTH 39 0
BBX 27 112 0 -12
BITMAP
01FFF000
03FFF800
07FFFC00
0FFFFE00
1FFFFF00
3FFFFF80
7FFFFFC0
FFFFFFE0
FFFFFFE0
FFFFFFE0
FFFFFFE0
FFFFFFE0
FFFFFFE0
FFFFFFE0
FFFFFFE0
FFFFFFE0
FFFFFFE0
FFFFFFE0
FFFFFFE0
FFFFFFE0
FFFFFFE0
FFFFFFE0
FFFFFFE0
7FFFFFC0
7FFFFFC0
7FFFFFC0
7FFFFFC0
7FFFFFC0
7FFFFFC0
7FFFFFC0
7FFFFFC0
3FFFFF80
3FFFFF80
3FFFFF80
3FFFFF80
3FFFFF80
3FFFFF80
1FFFFF00
1FFFFF00
1FFFFF00
1FFFFF00
1FFFFF00
1FFFFF00
1FFFFF00
1FFFFF00
0FFFFE00
0FFFFE00
0FFFFE00
0FFFFE00
0FFFFE00
0FFFFE00
07FFFC00
07FFFC00
07FFFC00
07FFFC00
07FFFC00
07FFFC00
07FFFC00
07FFFC00
07FFFC00
07FFFC00
03FFF800
03FFF800
03FFF800
03FFF800
03FFF800
03FFF800
01FFF000
00FFE000
007FC000
00000000
00000000
00000000
00000000
00000000
00000000
00000000
00000000
007FC000
00FFE000
01FFF000
03FFF800
07C07C00
0FC07E00
0FC07E00
0FC07E00
0FC07E00
0FC07E00
0FC07E00
0FC07E00
0FC07E00
07C07C00
03FFF800
01FFF000
00FFE000
007FC000
00000000
00000000
00000000
00000000
00000000
00000000
00000000
00000000
00000000
00000000
00000000
00000000
00000000
00000000
00000000
00000000
ENDCHAR
STARTCHAR char39
ENCODING 39
SWIDTH 675 0
DWIDTH 27 0
BBX 19 112 0 -12
BITMAP
FFFFE0
FFFFE0
FFFFE0
FFFFE0
FC07E0
FC07E0
FC07E0
FC07E0
FC07E0
FC07E0
FC07E0
FC07E0
FC07E0
FC07E0
FFFFE0
FFFFE0
FFFFE0
FFFFE0
FFFFE0
07FC00
07FC00
07FC00
07FC00
03F800
03F800
03F800
03F800
01F000
01F000
01F000
01F000
00E000
00E000
00E000
000000
000000
000000
000000
000000
000000
000000
000000
000000
000000
000000
000000
000000
000000
000000
000000
000000
000000
000000
000000
000000
000000
000000
000000
000000
000000
000000
000000
000000
000000
000000
000000
000000
000000
000000
000000
000000
000000
000000
000000
000000
000000
000000
000000
000000
000000
000000
000000
000000
000000
000000
000000
000000
000000
000000
000000
000000
000000
000000
000000
000000
000000
000000
000000
000000
000000
000000
000000
000000
000000
000000
000000
000000
000000
000000
000000
000000
000000
ENDCHAR
STARTCHAR char42
ENCODING 42
SWIDTH 1325 0
DWIDTH 53 0
BBX 39 112 0 -12
BITMAP
0000000000
0000000000
0000000000
0000000000
0000000000
0000000000
0000000000
0000000000
0000000000
0000000000
0000000000
0000000000
0000000000
0000000000
0000000000
0000000000
0000000000
0000000000
0000000000
0000000000
0000000000
0000000000
0000000000
0000000000
0000000000
0000000000
0000000000
0000000000
0000000000
0000000000
0000FE0000
0000FE0000
0000FE0000
0000FE0000
0000FE0000
00007C0000
00007C0000
00007C0000
FC007C007E
FE007C00FE
FF007C01FE
FFE07C0FFE
7FF07C1FFE
03F87C3F00
00FC7C7E00
001E7CF000
000FFFE000
0007FFC000
0007FFC000
0007FFC000
0007FFC000
000FFFE000
001E7CF000
00FC7C7E00
01F87C3F80
FFF07C1FFC
FFE07C0FFE
FF007C01FE
FE007C00FE
FC007C007E
00007C0000
00007C0000
00007C0000
0000FE0000
0000FE0000
0000FE0000
0000FE0000
0000FE0000
0000000000
0000000000
0000000000
0000000000
0000000000
0000000000
0000000000
0000000000
0000000000
0000000000
0000000000
0000000000
0000000000
0000000000
0000000000
0000000000
0000000000
0000000000
0000000000
0000000000
0000000000
0000000000
0000000000
0000000000
0000000000
0000000000
0000000000
0000000000
0000000000
0000000000
0000000000
0000000000
0000000000
0000000000
0000000000
0000000000
0000000000
0000000000
0000000000
0000000000
0000000000
0000000000
0000000000
0000000000
ENDCHAR
STARTCHAR char44
ENCODING 44
SWIDTH 675 0
DWIDTH 27 0
BBX 19 112 0 -12
BITMAP
000000
000000
000000
000000
000000
000000
000000
000000
000000
000000
000000
000000
000000
000000
000000
000000
000000
000000
000000
000000
000000
000000
000000
000000
000000
000000
000000
000000
000000
000000
000000
000000
000000
000000
000000
000000
000000
000000
000000
000000
000000
000000
000000
000000
000000
000000
000000
000000
000000
000000
000000
000000
000000
000000
000000
000000
000000
000000
000000
000000
000000
000000
000000
000000
000000
000000
000000
000000
000000
000000
000000
000000
000000
000000
000000
000000
000000
000000
000000
000000
FFFFE0
FFFFE0
FFFFE0
FFFFE0
FC07E0
FC07E0
FC07E0
FC07E0
FC07E0
FC07E0
FC07E0
FC07E0
FC07E0
FC07E0
FFFFE0
FFFFE0
FFFFE0
FFFFE0
7FFFE0
003FE0
001FE0
000FE0
000FE0
0007C0
0007C0
000780
000780
000F00
001E00
003C00
007800
00F000
ENDCHAR
STARTCHAR char45
ENCODING 45
SWIDTH 1225 0
DWIDTH 49 0
BBX 33 112 0 -12
BITMAP
0000000000
0000000000
0000000000
0000000000
0000000000
0000000000
0000000000
0000000000
0000000000
0000000000
0000000000
0000000000
0000000000
0000000000
0000000000
0000000000
0000000000
0000000000
0000000000
0000000000
0000000000
0000000000
0000000000
0000000000
0000000000
0000000000
0000000000
0000000000
0000000000
0000000000
0000000000
0000000000
0000000000
0000000000
0000000000
0000000000
0000000000
0000000000
0000000000
0000000000
0000000000
0000000000
0000000000
0000000000
FFFFFFFF80
FFFFFFFF80
FFFFFFFF80
FFFFFFFF80
FFFFFFFF80
FFFFFFFF80
0000000000
0000000000
0000000000
0000000000
0000000000
0000000000
0000000000
0000000000
0000000000
0000000000
0000000000
0000000000
0000000000
0000000000
0000000000
0000000000
0000000000
0000000000
0000000000
0000000000
0000000000
0000000000
0000000000
0000000000
0000000000
0000000000
0000000000
0000000000
0000000000
0000000000
0000000000
0000000000
0000000000
0000000000
0000000000
0000000000
0000000000
0000000000
0000000000
0000000000
0000000000
0000000000
0000000000
0000000000
0000000000
0000000000
0000000000
0000000000
0000000000
0000000000
0000000000
0000000000
0000000000
0000000000
0000000000
0000000000
0000000000
0000000000
0000000000
0000000000
0000000000
0000000000
ENDCHAR
STARTCHAR char46
ENCODING 46
SWIDTH 675 0
DWIDTH 27 0
BBX 19 112 0 -12
BITMAP
000000
000000
000000
000000
000000
000000
000000
000000
000000
000000
000000
000000
000000
000000
000000
000000
000000
000000
000000
000000
000000
000000
000000
000000
000000
000000
000000
000000
000000
000000
000000
000000
000000
000000
000000
000000
000000
000000
000000
000000
000000
000000
000000
000000
000000
000000
000000
000000
000000
000000
000000
000000
000000
000000
000000
000000
000000
000000
000000
000000
000000
000000
000000
000000
000000
000000
000000
000000
000000
000000
000000
000000
000000
000000
000000
000000
000000
000000
000000
000000
07FC00
0FFE00
1FFF00
3FFF80
7C07C0
FC07E0
FC07E0
FC07E0
FC07E0
FC07E0
FC07E0
FC07E0
FC07E0
7C07C0
3FFF80
1FFF00
0FFE00
07FC00
000000
000000
000000
000000
000000
000000
000000
000000
000000
000000
000000
000000
000000
000000
ENDCHAR
STARTCHAR char47
ENCODING 47
SWIDTH 1825 0
DWIDTH 73 0
BBX 57 112 0 -12
BITMAP
0000000000007F80
000000000000FF00
000000000000FF00
000000000001FE00
000000000001FE00
000000000003FC00
000000000003FC00
000000000007F800
000000000007F800
00000000000FF000
00000000000FF000
00000000001FE000
00000000001FE000
00000000003FC000
00000000003FC000
00000000007F8000
00000000007F8000
0000000000FF0000
0000000000FF0000
0000000001FE0000
0000000001FE0000
0000000003FC0000
0000000003FC0000
0000000007F80000
0000000007F80000
000000000FF00000
000000000FF00000
000000001FE00000
000000001FE00000
000000003FC00000
000000003FC00000
000000007F800000
000000007F800000
00000000FF000000
00000000FF000000
00000001FE000000
00000001FE000000
00000003FC000000
00000003FC000000
00000007F8000000
00000007F8000000
0000000FF0000000
0000000FF0000000
0000001FE0000000
0000001FE0000000
0000003FC0000000
0000003FC0000000
0000007F80000000
0000007F80000000
000000FF00000000
000000FF00000000
000001FE00000000
000001FE00000000
000003FC00000000
000003FC00000000
000007F800000000
000007F800000000
00000FF000000000
00000FF000000000
00001FE000000000
00001FE000000000
00003FC000000000
00003FC000000000
00007F8000000000
00007F8000000000
0000FF0000000000
0000FF0000000000
0001FE0000000000
0001FE0000000000
0003FC0000000000
0003FC0000000000
0007F80000000000
0007F80000000000
000FF00000000000
000FF00000000000
001FE00000000000
001FE00000000000
003FC00000000000
003FC00000000000
007F800000000000
007F800000000000
00FF000000000000
00FF000000000000
01FE000000000000
01FE000000000000
03FC000000000000
03FC000000000000
07F8000000000000
07F8000000000000
0FF0000000000000
0FF0000000000000
1FE0000000000000
1FE0000000000000
3FC0000000000000
3FC0000000000000
7F80000000000000
7F80000000000000
FF00000000000000
0000000000000000
0000000000000000
0000000000000000
0000000000000000
0000000000000000
0000000000000000
0000000000000000
0000000000000000
0000000000000000
0000000000000000
0000000000000000
0000000000000000
0000000000000000
0000000000000000
ENDCHAR
STARTCHAR char48
ENCODING 48
SWIDTH 2475 0
DWIDTH 99 0
BBX 77 112 0 -12
BITMAP
0001FFFFFFFFFFF00000
0003FFFFFFFFFFF80000
0007FFFFFFFFFFFC0000
000FFFFFFFFFFFFE0000
001FFFFFFFFFFFFF0000
003FFFFFFFFFFFFF8000
007FE000000007FFC000
00FFC000000007FFE000
01FF8000000007FFF000
03FF000000000FFFF800
07FE000000001FCFFC00
0FFC000000003F87FE00
1FF8000000003F83FF00
3FF0000000007F01FF80
7FE0000000007E01FFC0
FFC000000000FC01FFE0
FF8000000001FC01FFF0
FF0000000003F801FFF8
FF0000000003F801FFF8
FF0000000007F003FFF8
FF0000000007E003FFF8
FF000000000FC007FFF8
FF000000001FC007E7F8
FF000000003F800FC7F8
FF000000003F801FC7F8
FF000000007F003F87F8
FF000000007E003F87F8
FF00000000FC007F07F8
FF00000001FC007E07F8
FF00000003F800FC07F8
FF00000003F801FC07F8
FF00000007F003F807F8
FF00000007E003F807F8
FF0000000FC007F007F8
FF0000001FC007E007F8
FF0000003F800FC007F8
FF0000003F801FC007F8
FF0000007F003F8007F8
FF0000007E003F8007F8
FF000000FC007F0007F8
FF000001FC007E0007F8
FF000003F800FC0007F8
FF000003F801FC0007F8
FF000007F003F80007F8
FF000007E003F80007F8
FF00000FC007F00007F8
FF00001FC007E00007F8
FF00003F800FC00007F8
FF00003F801FC00007F8
FF00007F003F800007F8
FF00007E003F800007F8
FF0000FC007F000007F8
FF0001FC007E000007F8
FF0003F800FC000007F8
FF0003F801FC000007F8
FF0007F003F8000007F8
FF0007E003F8000007F8
FF000FC007F0000007F8
FF001FC007E0000007F8
FF003F800FC0000007F8
FF003F801FC0000007F8
FF007F003F80000007F8
FF007E003F80000007F8
FF00FC007F00000007F8
FF01FC007E00000007F8
FF03F800FC00000007F8
FF03F801FC00000007F8
FF07F003F800000007F8
FF07E003F800000007F8
FF0FC007F000000007F8
FF1FC007E000000007F8
FF3F800FC000000007F8
FF3F801FC000000007F8
FF3F003F8000000007F8
FF7E003F8000000007F8
FF7C007F0000000007F8
FFFC007E0000000007F8
FFF800FC0000000007F8
FFF801FC0000000007F8
FFF003F8000000000FF8
FFF003F8000000001FF8
FFF007F0000000003FF0
FFF007E0000000007FE0
7FF00FC000000000FFC0
3FF01FC000000001FF80
1FF83F8000000003FF00
0FFFFF8000000007FE00
07FFFF000000000FFC00
03FFFE000000001FF800
01FFFC000000003FF000
00FFFC000000007FE000
007FFC00000000FFC000
003FFFFFFFFFFFFF8000
001FFFFFFFFFFFFF0000
000FFFFFFFFFFFFE0000
0007FFFFFFFFFFFC0000
0003FFFFFFFFFFF80000
0001FFFFFFFFFFF00000
00000000000000000000
00000000000000000000
00000000000000000000
00000000000000000000
00000000000000000000
00000000000000000000
00000000000000000000
00000000000000000000
00000000000000000000
00000000000000000000
00000000000000000000
00000000000000000000
00000000000000000000
00000000000000000000
ENDCHAR
STARTCHAR char49
ENCODING 49
SWIDTH 2475 0
DWIDTH 99 0
BBX 37 112 0 -12
BITMAP
0000002000
0000006000
0000006000
000000E000
000000E000
000001E000
000001E000
000003E000
000007E000
00000FE000
00001FE000
00003FE000
00007FE000
0000FFE000
0001FFE000
0003FFE000
0007FFE000
000FFFE000
001FFFE000
00FFFFE000
01FFE7E000
0FFFC7E000
1FFF87E000
FFFF07E000
7FFF07E000
00FF07E000
007F07E000
007F07E000
007F07E000
007F07E000
007F07E000
007F07E000
007F07E000
007F07E000
007F07E000
007F07E000
007F07E000
007F07E000
007F07E000
007F07E000
007F07E000
007F07E000
007F07E000
007F07E000
007F07E000
007F07E000
007F07E000
007F07E000
007F07E000
007F07E000
007F07E000
007F07E000
007F07E000
007F07E000
007F07E000
007F07E000
007F07E000
007F07E000
007F07E000
007F07E000
007F07E000
007F07E000
007F07E000
007F07E000
007F07E000
007F07E000
007F07E000
007F07E000
007F07E000
007F07E000
007F07E000
007F07E000
007F07E000
007F07E000
007F07E000
007F07E000
007F07E000
007F07E000
007F07E000
007F07E000
007F07E000
007F07E000
007F07E000
007F07E000
007F07E000
007F07E000
007F07E000
007F07E000
007F07E000
007F07E000
007F07E000
007F07E000
007FFFF800
FFFFFFFFF0
FFFFFFFFF8
FFFFFFFFF8
FFFFFFFFF8
FFFFFFFFF8
0000000000
0000000000
0000000000
0000000000
0000000000
0000000000
0000000000
0000000000
0000000000
0000000000
0000000000
0000000000
0000000000
0000000000
ENDCHAR
STARTCHAR char50
ENCODING 50
SWIDTH 2475 0
DWIDTH 99 0
BBX 75 112 0 -12
BITMAP
00001FFFFFFFFF000000
00003FFFFFFFFF800000
00007FFFFFFFFFC00000
0000FFFFFFFFFFE00000
0001FFFFFFFFFFF00000
0003FFFFFFFFFFF80000
0007FFFFFFFFFFFC0000
000FFFFFFFFFFFFE0000
001FF800000003FF0000
003FF000000001FF8000
007FE000000000FFC000
00FFC0000000007FE000
01FF80000000003FF000
03FF00000000001FF800
07FE00000000000FFC00
0FFC000000000007FE00
1FF8000000000003FF00
3FF0000000000001FF80
7FE0000000000000FFC0
FFC00000000000007FE0
FF800000000000003FE0
FF000000000000001FE0
FE000000000000001FE0
FC000000000000003FE0
F8000000000000007FE0
F000000000000000FFE0
E000000000000001FFE0
C000000000000003FFE0
C000000000000007FFE0
800000000000000FFFE0
000000000000001FE7E0
000000000000003FC7E0
000000000000007F87E0
00000000000000FF07E0
00000000000001FE07E0
00000000000003FC07E0
00000000000007F807E0
0000000000000FF00FE0
0000000000001FE01FE0
0000000000003FC03FC0
0000000000007F807F80
000000000000FF00FF00
000000000001FE01FE00
000000000003FC03FC00
000000000007F807F800
00000000000FF00FF000
00000000001FE01FE000
00000000003FC03FC000
00000000007F807F8000
0000000000FF00FF0000
0000000001FE01FE0000
0000000003FC03FC0000
0000000007F807F80000
000000000FF00FF00000
000000001FE01FE00000
000000003FC03FC00000
000000007F807F800000
00000000FF00FF000000
00000001FE01FE000000
00000003FC03FC000000
00000007F807F8000000
0000000FF00FF0000000
0000001FE01FE0000000
0000003FC03FC0000000
0000007F807F80000000
000000FF00FF00000000
000001FE01FE00000000
000003FC03FC00000000
000007F807F800000000
00000FF00FF000000000
00001FE01FE000000000
00003FC03FC000000000
00007F807F8000000000
0000FF00FF0000000000
0001FE01FE0000000000
0003FC03FC0000000000
0007F807F80000000000
000FF00FF00000000000
001FE01FE00000000000
003FC03FC00000000000
007F807F800000000000
00FF00FF000000000000
01FE01FE000000000000
03FC03FC000000000000
07F807F8000000000000
0FF00FF0000000000000
1FE01FE0000000000000
3FC03FC0000000000000
7F807F80000000000000
FF00FF00000000000000
FFFFFFF0000000000000
FFFFFFFFFFFFFFFFFF00
FFFFFFFFFFFFFFFFFFE0
FFFFFFFFFFFFFFFFFFE0
FFFFFFFFFFFFFFFFFFE0
FFFFFFFFFFFFFFFFFFE0
FFFFFFFFFFFFFFFFFFE0
FFFFFFFFFFFFFFFFFFE0
00000000000000000000
00000000000000000000
00000000000000000000
00000000000000000000
00000000000000000000
00000000000000000000
00000000000000000000
00000000000000000000
00000000000000000000
00000000000000000000
00000000000000000000
00000000000000000000
00000000000000000000
00000000000000000000
ENDCHAR
STARTCHAR char51
ENCODING 51
SWIDTH 2475 0
DWIDTH 99 0
BBX 73 112 0 -12
BITMAP
0007FFFFFFFFFFC00000
000FFFFFFFFFFFF80000
001FFFFFFFFFFFFC0000
003FFFFFFFFFFFFF8000
007FFFFFFFFFFFFFC000
00FFFFFFFFFFFFFFE000
01FE0000000001FFF000
03FC0000000001FFF800
07F80000000001FFFC00
0FF00000000001FFFE00
1FE00000000001FCFF00
3FC00000000001FC7F80
7F800000000001FC3F80
FF000000000001FC1F80
FE000000000001FC1F80
FC000000000001FC1F80
F8000000000001FC1F80
F0000000000001FC1F80
E0000000000001FC1F80
C0000000000001FC1F80
C0000000000001FC1F80
80000000000001FC1F80
00000000000001FC1F80
00000000000001FC1F80
00000000000001FC1F80
00000000000001FC1F80
00000000000001FC1F80
00000000000001FC1F80
00000000000001FC1F80
00000000000001FC1F80
00000000000001FC1F80
00000000000001FC1F80
00000000000001FC1F80
00000000000001FC1F80
00000000000001FC1F80
00000000000001FC1F80
00000000000001FC1F80
00000000000001FC3F80
00000000000001FC7F80
00000000000001FCFF00
00000000000001FFFE00
00000000000001FFFC00
00000000000001FFF800
00000000000001FFF000
00000000000003FFE000
000000007FFFFFFFC000
00000001FFFFFFFF8000
00000003FFFFFFFF0000
00000003FFFFFFFF0000
00000003FFFFFFFF0000
00000003FFFFFFFF0000
00000001FFFFFFFF8000
000000003FFFFFFFC000
00000000000007FFE000
00000000000001FFF000
00000000000001FFF800
00000000000001FFFC00
00000000000001FFFE00
00000000000001FCFF00
00000000000001FC7F80
00000000000001FC3F80
00000000000001FC1F80
00000000000001FC1F80
00000000000001FC1F80
00000000000001FC1F80
00000000000001FC1F80
00000000000001FC1F80
00000000000001FC1F80
00000000000001FC1F80
00000000000001FC1F80
00000000000001FC1F80
00000000000001FC1F80
00000000000001FC1F80
00000000000001FC1F80
00000000000001FC1F80
00000000000001FC1F80
80000000000001FC1F80
C0000000000001FC1F80
C0000000000001FC1F80
E0000000000001FC1F80
F0000000000001FC1F80
F8000000000001FC1F80
FC000000000001FC1F80
FE000000000001FC1F80
FF000000000001FC1F80
7F800000000001FC3F80
3FC00000000001FC7F80
1FE00000000001FCFF00
0FF00000000001FFFE00
07F80000000001FFFC00
03FC0000000001FFF800
01FE0000000001FFF000
00FFFFFFFFFFFFFFE000
007FFFFFFFFFFFFFC000
003FFFFFFFFFFFFF8000
001FFFFFFFFFFFFC0000
000FFFFFFFFFFFF80000
0007FFFFFFFFFFC00000
00000000000000000000
00000000000000000000
00000000000000000000
00000000000000000000
00000000000000000000
00000000000000000000
00000000000000000000
00000000000000000000
00000000000000000000
00000000000000000000
00000000000000000000
00000000000000000000
00000000000000000000
00000000000000000000
ENDCHAR
STARTCHAR char52
ENCODING 52
SWIDTH 2475 0
DWIDTH 99 0
BBX 75 112 0 -12
BITMAP
0000000001FFFFE00000
0000000003FFFFE00000
0000000007FFFFE00000
000000000FFFFFE00000
000000000FFFFFE00000
000000001FFFFFE00000
000000001FFF07E00000
000000003FFF07E00000
000000007FFF07E00000
00000000FFFF07E00000
00000000FFFF07E00000
00000001FFFF07E00000
00000001FE7F07E00000
00000003FC7F07E00000
00000007F87F07E00000
0000000FF07F07E00000
0000000FF07F07E00000
0000001FE07F07E00000
0000001FE07F07E00000
0000003FC07F07E00000
0000007F807F07E00000
000000FF007F07E00000
000000FF007F07E00000
000001FE007F07E00000
000001FE007F07E00000
000003FC007F07E00000
000007F8007F07E00000
00000FF0007F07E00000
00000FF0007F07E00000
00001FE0007F07E00000
00001FE0007F07E00000
00003FC0007F07E00000
00007F80007F07E00000
0000FF00007F07E00000
0000FF00007F07E00000
0001FE00007F07E00000
0001FE00007F07F00000
0003FC00007F07F00000
0007F800007F07F00000
000FF000007F07F00000
000FF000007F07F00000
001FE000007F07F00000
001FE000007F07F00000
003FC000007F07F00000
007F8000007F07F00000
00FF0000007F07F00000
00FF0000007F07F00000
01FE0000007F07F00000
01FE0000007F07F00000
03FC0000007F07F00000
07F80000007F07F00000
0FF00000007F07F00000
0FF00000007F07F00000
1FE00000007F07F00000
1FE00000007F07F00000
3FC00000007F07F00000
7F800000007F07F00000
FF000000007F07F00000
FFFFFFFFFFFFFFF80000
FFFFFFFFFFFFFFFFFFC0
FFFFFFFFFFFFFFFFFFE0
FFFFFFFFFFFFFFFFFFE0
FFFFFFFFFFFFFFFFFFE0
FFFFFFFFFFFFFFFFFFE0
FFFFFFFFFFFFFFFFFFE0
FFFFFFFFFFFFFFFFFFE0
1FFFFFFFFFFFFFFFFFC0
0000000003FFFFF80000
00000000007F07F00000
00000000007F07F00000
00000000007F07F00000
00000000007F07F00000
00000000007F07F00000
00000000007F07F00000
00000000007F07F00000
00000000007F07F00000
00000000007F07F00000
00000000007F07F00000
00000000007F07F00000
00000000007F07F00000
00000000007F07F00000
00000000007F07F00000
00000000007F07F00000
00000000007F07F00000
00000000007F07F00000
00000000007F07F00000
00000000007F07F00000
00000000007F07F00000
00000000007F07F00000
00000000007F07F00000
00000000007F07F00000
00000000007F07F00000
00000000007FFFF80000
00000000FFFFFFFFF000
00000000FFFFFFFFF800
00000000FFFFFFFFF800
00000000FFFFFFFFF800
00000000FFFFFFFFF800
00000000000000000000
00000000000000000000
00000000000000000000
00000000000000000000
00000000000000000000
00000000000000000000
00000000000000000000
00000000000000000000
00000000000000000000
00000000000000000000
00000000000000000000
00000000000000000000
00000000000000000000
00000000000000000000
ENDCHAR
STARTCHAR char53
ENCODING 53
SWIDTH 2475 0
DWIDTH 99 0
BBX 71 112 0 -12
BITMAP
3FFFFFFFFFFFFFFF80
3FFFFFFFFFFFFFFF80
3FFFFFFFFFFFFFFF80
3FFFFFFFFFFFFFFF80
3FFFFFFFFFFFFFFE00
3FFFFC000000000000
3F07F0000000000000
3F07F0000000000000
3F07F0000000000000
3F07F0000000000000
3F07F0000000000000
3F07F0000000000000
3F07F0000000000000
3F07F0000000000000
3F07F0000000000000
3F07F0000000000000
3F07F0000000000000
3F07F0000000000000
3F07F0000000000000
3F07F0000000000000
3F07F0000000000000
3F07F0000000000000
3F07F0000000000000
3F07F0000000000000
3F07F0000000000000
3F07F0000000000000
3F07F0000000000000
3F07F0000000000000
3F07F0000000000000
3F07F0000000000000
3F07FFFFFFFC000000
3F07FFFFFFFFE00000
3F07FFFFFFFFF00000
3F07FFFFFFFFFE0000
3F07FFFFFFFFFF0000
3F0FFFFFFFFFFFE000
3F1FFE000003FFF000
3F3FF00000007FF800
3FFFE00000003FFC00
3FFF0000000007FE00
3FFE0000000003FF00
3FF00000000001FF80
3FE00000000000FF80
3FC000000000007FC0
3F8000000000003FC0
3F0000000000001FE0
3E0000000000000FE0
3C00000000000007F0
3800000000000007F0
3000000000000003F8
0000000000000003F8
0000000000000001FC
0000000000000001FC
0000000000000000FE
0000000000000000FE
00000000000000007E
00000000000000007E
00000000000000007E
00000000000000007E
00000000000000007E
00000000000000007E
00000000000000007E
00000000000000007E
00000000000000007E
00000000000000007E
00000000000000007E
00000000000000007E
00000000000000007E
00000000000000007E
00000000000000007E
00000000000000007E
00000000000000007E
00000000000000007E
00000000000000007E
00000000000000007E
0000000000000000FE
FC00000000000000FE
FE00000000000001FC
FE00000000000001FC
FE00000000000003F8
FF00000000000003F8
7F00000000000007F0
3F00000000000007E0
1F8000000000000FC0
1FC000000000001FC0
0FE000000000003F80
0FF000000000007F80
07F80000000000FF00
03FC0000000001FE00
01FF800000000FFC00
00FFC00000001FF800
007FF8000000FFF000
003FFFFFFFFFFFE000
0007FFFFFFFFFF0000
0003FFFFFFFFFE0000
0001FFFFFFFFC00000
0000FFFFFFFF800000
000007FFFFFC000000
000000000000000000
000000000000000000
000000000000000000
000000000000000000
000000000000000000
000000000000000000
000000000000000000
000000000000000000
000000000000000000
000000000000000000
000000000000000000
000000000000000000
000000000000000000
000000000000000000
ENDCHAR
STARTCHAR char54
ENCODING 54
SWIDTH 2475 0
DWIDTH 99 0
BBX 73 112 0 -12
BITMAP
001FFFFFFFFFFFF00000
003FFFFFFFFFFFF80000
007FFFFFFFFFFFFC0000
00FFFFFFFFFFFFFE0000
01FFFFFFFFFFFFFF0000
03FFFFFFFFFFFFFF8000
07FE0000000000FFC000
0FFC00000000007FE000
1FF800000000003FF000
3FF000000000001FF800
7FE000000000000FFC00
FFC0000000000007FE00
FF80000000000003FF00
FF00000000000001FF80
FE00000000000000FF80
FC000000000000007F80
FC000000000000003F80
FC000000000000001F80
FC000000000000000F80
FC000000000000000780
FC000000000000000380
FC000000000000000180
FC000000000000000180
FC000000000000000080
FC000000000000000000
FC000000000000000000
FC000000000000000000
FC000000000000000000
FC000000000000000000
FC000000000000000000
FC000000000000000000
FC000000000000000000
FC000000000000000000
FC000000000000000000
FC000000000000000000
FC000000000000000000
FC000000000000000000
FC000000000000000000
FC000000000000000000
FC000000000000000000
FC000000000000000000
FC000000000000000000
FC000000000000000000
FC000000000000000000
FC000000000000000000
FC000000000000000000
FC01FFFFFFFFFFC00000
FC0FFFFFFFFFFFE00000
FC1FFFFFFFFFFFF00000
FCFFFFFFFFFFFFF80000
FFFFFFFFFFFFFFFC0000
FFFFFFFFFFFFFFFE0000
FFFFFFFFFFFFFFFF0000
FFFFFFFFFFFFFFFF8000
FFFFC0000000003FC000
FFFFC0000000001FE000
FF9FC0000000000FF000
FF1FC00000000007F800
FE1FC00000000003FC00
FC1FC00000000001FE00
FC1FC00000000000FF00
FC1FC000000000007F80
FC1FC000000000003F80
FC1FC000000000001F80
FC1FC000000000001F80
FC1FC000000000001F80
FC1FC000000000001F80
FC1FC000000000001F80
FC1FC000000000001F80
FC1FC000000000001F80
FC1FC000000000001F80
FC1FC000000000001F80
FC1FC000000000001F80
FC1FC000000000001F80
FC1FC000000000001F80
FC1FC000000000001F80
FC1FC000000000001F80
FC1FC000000000001F80
FC1FC000000000001F80
FC1FC000000000001F80
FC1FC000000000001F80
FC1FC000000000001F80
FC1FC000000000001F80
FC1FC000000000003F80
FC1FC000000000007F80
FE1FC00000000000FF00
FF1FC00000000001FE00
7F9FC00000000003FC00
3FFFC00000000007F800
1FFFC0000000000FF000
0FFFC0000000001FE000
07FFC0000000003FC000
03FFFFFFFFFFFFFF8000
01FFFFFFFFFFFFFF0000
00FFFFFFFFFFFFFE0000
001FFFFFFFFFFFFC0000
000FFFFFFFFFFFF80000
0001FFFFFFFFFFF00000
00000000000000000000
00000000000000000000
00000000000000000000
00000000000000000000
00000000000000000000
00000000000000000000
00000000000000000000
00000000000000000000
00000000000000000000
00000000000000000000
00000000000000000000
00000000000000000000
00000000000000000000
00000000000000000000
ENDCHAR
STARTCHAR char55
ENCODING 55
SWIDTH 2475 0
DWIDTH 99 0
BBX 75 112 0 -12
BITMAP
FFFFFFFFFFFFFFFFFFE0
FFFFFFFFFFFFFFFFFFE0
FFFFFFFFFFFFFFFFFFE0
FFFFFFFFFFFFFFFFFFE0
FFFFFFFFFFFFFFFFFFE0
FFFFFFFFFFFFFFFFFFE0
FF8000000000000001E0
FF0000000000000003E0
FE0000000000000007E0
FC000000000000000FE0
F8000000000000001FE0
F0000000000000003FC0
F0000000000000007F80
E000000000000000FF00
E000000000000001FE00
C000000000000003FC00
C000000000000007F800
800000000000000FF000
000000000000001FE000
000000000000003FC000
000000000000007F8000
00000000000000FF0000
00000000000001FE0000
00000000000003FC0000
00000000000007F80000
0000000000000FF00000
0000000000001FE00000
0000000000003FC00000
0000000000007F800000
000000000000FF000000
000000000001FE000000
000000000003FC000000
000000000007F8000000
00000000000FF0000000
00000000001FE0000000
00000000003FC0000000
00000000007F80000000
0000000000FF00000000
0000000001FE00000000
0000000003FC00000000
0000000007FC00000000
000000000FFC00000000
000000001FFC00000000
000000003FFC00000000
000000007FFC00000000
00000000FFFC00000000
00000001FFFC00000000
00000003FFFC00000000
00000007F9FC00000000
0000000FF1FC00000000
0000000FE1FC00000000
0000000FC1FC00000000
0000000FC1FC00000000
0000000FC1FC00000000
0000000FC1FC00000000
0000000FC1FC00000000
0000000FC1FC00000000
0000000FC1FC00000000
0000000FC1FC00000000
0000000FC1FC00000000
0000000FC1FC00000000
0000000FC1FC00000000
0000000FC1FC00000000
0000000FC1FC00000000
0000000FC1FC00000000
0000000FC1FC00000000
0000000FC1FC00000000
0000000FC1FC00000000
0000000FC1FC00000000
0000000FC1FC00000000
0000000FC1FC00000000
0000000FC1FC00000000
0000000FC1FC00000000
0000000FC1FC00000000
0000000FC1FC00000000
0000000FC1FC00000000
0000000FC1FC00000000
0000000FC1FC00000000
0000000FC1FC00000000
0000000FC1FC00000000
0000000FC1FC00000000
0000000FC1FC00000000
0000000FC1FC00000000
0000000FC1FC00000000
0000000FC1FC00000000
0000000FC1FC00000000
0000001FC1FC00000000
0000001FC1FC00000000
0000001FC1FC00000000
0000001FC1FC00000000
0000001FC1FC00000000
0000001FC1FC00000000
0000001FFFFE00000000
00003FFFFFFFFC000000
00003FFFFFFFFE000000
00003FFFFFFFFE000000
00003FFFFFFFFE000000
00003FFFFFFFFE000000
00000000000000000000
00000000000000000000
00000000000000000000
00000000000000000000
00000000000000000000
00000000000000000000
00000000000000000000
00000000000000000000
00000000000000000000
00000000000000000000
00000000000000000000
00000000000000000000
00000000000000000000
00000000000000000000
ENDCHAR
STARTCHAR char56
ENCODING 56
SWIDTH 2475 0
DWIDTH 99 0
BBX 73 112 0 -12
BITMAP
0001FFFFFFFFFFF00000
000FFFFFFFFFFFF80000
001FFFFFFFFFFFFC0000
00FFFFFFFFFFFFFE0000
01FFFFFFFFFFFFFF0000
03FFFFFFFFFFFFFF8000
07FFC000000000FFC000
0FFFC0000000007FE000
1FFFC0000000003FF000
3FFFC0000000001FF800
7F9FC0000000000FFC00
FF1FC00000000007FE00
FE1FC00000000003FF00
FC1FC00000000001FF80
FC1FC00000000000FF80
FC1FC000000000007F80
FC1FC000000000003F80
FC1FC000000000001F80
FC1FC000000000001F80
FC1FC000000000001F80
FC1FC000000000001F80
FC1FC000000000001F80
FC1FC000000000001F80
FC1FC000000000001F80
FC1FC000000000001F80
FC1FC000000000001F80
FC1FC000000000001F80
FC1FC000000000001F80
FC1FC000000000001F80
FC1FC000000000001F80
FC1FC000000000001F80
FC1FC000000000001F80
FC1FC000000000001F80
FC1FC000000000001F80
FC1FC000000000001F80
FC1FC000000000003F80
FC1FC000000000007F80
FE1FC00000000000FF00
FF1FC00000000001FE00
7F9FC00000000003FC00
3FFFC00000000007F800
1FFFC0000000000FF000
0FFFC0000000001FE000
07FFC0000000003FC000
03FFFFFFFFFFFFFF8000
01FFFFFFFFFFFFFF0000
00FFFFFFFFFFFFFE0000
007FFFFFFFFFFFFC0000
007FFFFFFFFFFFFC0000
007FFFFFFFFFFFFC0000
007FFFFFFFFFFFFC0000
00FFFFFFFFFFFFFE0000
01FFFFFFFFFFFFFF0000
03FFFFFFFFFFFFFF8000
07FFC0000000003FC000
0FFFC0000000001FE000
1FFFC0000000000FF000
3FFFC00000000007F800
7F9FC00000000003FC00
FF1FC00000000001FE00
FE1FC00000000000FF00
FC1FC000000000007F80
FC1FC000000000003F80
FC1FC000000000001F80
FC1FC000000000001F80
FC1FC000000000001F80
FC1FC000000000001F80
FC1FC000000000001F80
FC1FC000000000001F80
FC1FC000000000001F80
FC1FC000000000001F80
FC1FC000000000001F80
FC1FC000000000001F80
FC1FC000000000001F80
FC1FC000000000001F80
FC1FC000000000001F80
FC1FC000000000001F80
FC1FC000000000001F80
FC1FC000000000001F80
FC1FC000000000001F80
FC1FC000000000001F80
FC1FC000000000001F80
FC1FC000000000001F80
FC1FC000000000003F80
FC1FC000000000007F80
FE1FC00000000000FF00
FF1FC00000000001FE00
7F9FC00000000003FC00
3FFFC00000000007F800
1FFFC0000000000FF000
0FFFC0000000001FE000
07FFC0000000003FC000
03FFFFFFFFFFFFFF8000
01FFFFFFFFFFFFFF0000
00FFFFFFFFFFFFFE0000
001FFFFFFFFFFFFC0000
000FFFFFFFFFFFF80000
0001FFFFFFFFFFF00000
00000000000000000000
00000000000000000000
00000000000000000000
00000000000000000000
00000000000000000000
00000000000000000000
00000000000000000000
00000000000000000000
00000000000000000000
00000000000000000000
00000000000000000000
00000000000000000000
00000000000000000000
00000000000000000000
ENDCHAR
STARTCHAR char57
ENCODING 57
SWIDTH 2475 0
DWIDTH 99 0
BBX 73 112 0 -12
BITMAP
0007FFFFFFFFFFC00000
000FFFFFFFFFFFF80000
001FFFFFFFFFFFFC0000
003FFFFFFFFFFFFF8000
007FFFFFFFFFFFFFC000
00FFFFFFFFFFFFFFE000
01FE0000000001FFF000
03FC0000000001FFF800
07F80000000001FFFC00
0FF00000000001FFFE00
1FE00000000001FCFF00
3FC00000000001FC7F80
7F800000000001FC3F80
FF000000000001FC1F80
FE000000000001FC1F80
FC000000000001FC1F80
FC000000000001FC1F80
FC000000000001FC1F80
FC000000000001FC1F80
FC000000000001FC1F80
FC000000000001FC1F80
FC000000000001FC1F80
FC000000000001FC1F80
FC000000000001FC1F80
FC000000000001FC1F80
FC000000000001FC1F80
FC000000000001FC1F80
FC000000000001FC1F80
FC000000000001FC1F80
FC000000000001FC1F80
FC000000000001FC1F80
FC000000000001FC1F80
FC000000000001FC1F80
FC000000000001FC1F80
FC000000000001FC1F80
FE000000000001FC1F80
FF000000000001FC1F80
7F800000000001FC1F80
3FC00000000001FC1F80
1FE00000000001FC3F80
0FF00000000001FC7F80
07F80000000001FCFF80
03FC0000000001FFFF80
01FE0000000001FFFF80
00FFFFFFFFFFFFFFFF80
007FFFFFFFFFFFFFFF80
003FFFFFFFFFFFFFFF80
001FFFFFFFFFFFFFFF80
000FFFFFFFFFFFFF9F80
0007FFFFFFFFFFFC1F80
0003FFFFFFFFFFF81F80
0001FFFFFFFFFFC01F80
00000000000000001F80
00000000000000001F80
00000000000000001F80
00000000000000001F80
00000000000000001F80
00000000000000001F80
00000000000000001F80
00000000000000001F80
00000000000000001F80
00000000000000001F80
00000000000000001F80
00000000000000001F80
00000000000000001F80
00000000000000001F80
00000000000000001F80
00000000000000001F80
00000000000000001F80
00000000000000001F80
00000000000000001F80
00000000000000001F80
00000000000000001F80
00000000000000001F80
80000000000000001F80
C0000000000000001F80
C0000000000000001F80
E0000000000000001F80
F0000000000000001F80
F8000000000000001F80
FC000000000000001F80
FE000000000000001F80
FF000000000000001F80
FF800000000000003F80
FFC00000000000007F80
7FE0000000000000FF80
3FF0000000000001FF80
1FF8000000000003FF00
0FFC000000000007FE00
07FE00000000000FFC00
03FF00000000001FF800
01FF80000000003FF000
00FFFFFFFFFFFFFFE000
007FFFFFFFFFFFFFC000
003FFFFFFFFFFFFF8000
001FFFFFFFFFFFFF0000
000FFFFFFFFFFFFE0000
0007FFFFFFFFFFFC0000
00000000000000000000
00000000000000000000
00000000000000000000
00000000000000000000
00000000000000000000
00000000000000000000
00000000000000000000
00000000000000000000
00000000000000000000
00000000000000000000
00000000000000000000
00000000000000000000
00000000000000000000
00000000000000000000
ENDCHAR
STARTCHAR char58
ENCODING 58
SWIDTH 675 0
DWIDTH 27 0
BBX 19 112 0 -12
BITMAP
000000
000000
000000
000000
000000
000000
000000
000000
000000
000000
000000
000000
000000
000000
000000
000000
000000
000000
000000
000000
000000
000000
000000
000000
000000
000000
000000
000000
000000
000000
000000
000000
07FC00
0FFE00
1FFF00
3FFF80
7C07C0
FC07E0
FC07E0
FC07E0
FC07E0
FC07E0
FC07E0
FC07E0
FC07E0
7C07C0
3FFF80
1FFF00
0FFE00
07FC00
000000
000000
000000
000000
000000
000000
000000
000000
000000
000000
000000
000000
000000
000000
000000
000000
000000
000000
000000
000000
07FC00
0FFE00
1FFF00
3FFF80
7C07C0
FC07E0
FC07E0
FC07E0
FC07E0
FC07E0
FC07E0
FC07E0
FC07E0
7C07C0
3FFF80
1FFF00
0FFE00
07FC00
000000
000000
000000
000000
000000
000000
000000
000000
000000
000000
000000
000000
000000
000000
000000
000000
000000
000000
000000
000000
000000
000000
000000
000000
ENDCHAR
STARTCHAR char59
ENCODING 59
SWIDTH 675 0
DWIDTH 27 0
BBX 19 112 0 -12
BITMAP
000000
000000
000000
000000
000000
000000
000000
000000
000000
000000
000000
000000
000000
000000
000000
000000
000000
000000
000000
000000
000000
000000
000000
000000
000000
000000
000000
000000
000000
000000
000000
000000
000000
000000
000000
000000
000000
000000
000000
000000
000000
000000
07FC00
0FFE00
1FFF00
3FFF80
7C07C0
FC07E0
FC07E0
FC07E0
FC07E0
FC07E0
FC07E0
FC07E0
FC07E0
7C07C0
3FFF80
1FFF00
0FFE00
07FC00
000000
000000
000000
000000
000000
000000
000000
000000
000000
000000
000000
000000
000000
000000
000000
000000
000000
000000
000000
000000
FFFFE0
FFFFE0
FFFFE0
FFFFE0
FC07E0
FC07E0
FC07E0
FC07E0
FC07E0
FC07E0
FC07E0
FC07E0
FC07E0
FC07E0
FFFFE0
FFFFE0
FFFFE0
FFFFE0
7FFFE0
003FE0
001FE0
000FE0
000FE0
0007C0
0007C0
000780
000780
000F00
001E00
003C00
007800
00F000
ENDCHAR
STARTCHAR char61
ENCODING 61
SWIDTH 1350 0
DWIDTH 54 0
BBX 49 112 0 -12
BITMAP
00000000000000
00000000000000
00000000000000
00000000000000
00000000000000
00000000000000
00000000000000
00000000000000
00000000000000
00000000000000
00000000000000
00000000000000
00000000000000
00000000000000
00000000000000
00000000000000
00000000000000
00000000000000
00000000000000
00000000000000
00000000000000
00000000000000
00000000000000
00000000000000
00000000000000
00000000000000
00000000000000
00000000000000
00000000000000
00000000000000
00000000000000
00000000000000
FFFFFFFFFFFF80
FFFFFFFFFFFF80
FFFFFFFFFFFF80
FFFFFFFFFFFF80
FFFFFFFFFFFF80
FFFFFFFFFFFF80
00000000000000
00000000000000
00000000000000
00000000000000
00000000000000
00000000000000
00000000000000
00000000000000
00000000000000
00000000000000
FFFFFFFFFFFF80
FFFFFFFFFFFF80
FFFFFFFFFFFF80
FFFFFFFFFFFF80
FFFFFFFFFFFF80
FFFFFFFFFFFF80
00000000000000
00000000000000
00000000000000
00000000000000
00000000000000
00000000000000
00000000000000
00000000000000
00000000000000
00000000000000
00000000000000
00000000000000
00000000000000
00000000000000
00000000000000
00000000000000
00000000000000
00000000000000
00000000000000
00000000000000
00000000000000
00000000000000
00000000000000
00000000000000
00000000000000
00000000000000
00000000000000
00000000000000
00000000000000
00000000000000
00000000000000
00000000000000
00000000000000
00000000000000
00000000000000
00000000000000
00000000000000
00000000000000
00000000000000
00000000000000
00000000000000
00000000000000
00000000000000
00000000000000
00000000000000
00000000000000
00000000000000
00000000000000
00000000000000
00000000000000
00000000000000
00000000000000
00000000000000
00000000000000
00000000000000
00000000000000
00000000000000
00000000000000
ENDCHAR
STARTCHAR char65
ENCODING 65
SWIDTH 2975 0
DWIDTH 119 0
BBX 99 112 0 -12
BITMAP
0000000000FFFFE00000000000
0000000001FFFFF00000000000
0000000001FFFFF00000000000
0000000003FFFFF80000000000
0000000003FFFFF80000000000
0000000003FFFFF80000000000
0000000007C1FC7C0000000000
0000000007C1FC7C0000000000
000000000781FC7C0000000000
000000000F81F87E0000000000
000000000F81F87E0000000000
000000000F01F87E0000000000
000000001F01F83F0000000000
000000001F03F03F0000000000
000000001E03F03F0000000000
000000003E03F03F8000000000
000000003E03E03F8000000000
000000003C07E01F8000000000
000000007C07E01FC000000000
000000007C07C01FC000000000
000000007807C00FC000000000
00000000F80FC00FE000000000
00000000F80F800FE000000000
00000000F00F8007E000000000
00000001F01F8007F000000000
00000001F01F0007F000000000
00000001E01F0003F000000000
00000003E03F0003F800000000
00000003E03E0003F800000000
00000003C03E0001F800000000
00000007C07E0001FC00000000
00000007C07C0001FC00000000
00000007807C0000FC00000000
0000000F80FC0000FE00000000
0000000F80F80000FE00000000
0000000F00F800007E00000000
0000001F01F800007F00000000
0000001F01F000007F00000000
0000001E01F000003F00000000
0000003E03F000003F80000000
0000003E03E000003F80000000
0000003C03E000001F80000000
0000007C07E000001FC0000000
0000007C07C000001FC0000000
0000007807C000000FC0000000
000000F80FC000000FE0000000
000000F80F8000000FE0000000
000000F00F80000007E0000000
000001F01F80000007F0000000
000001F01F00000007F0000000
000001E01F00000003F0000000
000003E03F00000003F8000000
000003E03E00000003F8000000
000003C03E00000001F8000000
000007C07E00000001FC000000
000007C07C00000001FC000000
000007807FFFFFFFFFFC000000
00000F80FFFFFFFFFFFE000000
00000F80FFFFFFFFFFFE000000
00000F00FFFFFFFFFFFE000000
00001F01FFFFFFFFFFFF000000
00001F01FFFFFFFFFFFF000000
00001E01FFFFFFFFFFFF000000
00003E03FFFFFFFFFFFF800000
00003E03FFFFFFFFFFFF800000
00003C03FFFFFFFFFFFF800000
00007C07C0000000001FC00000
00007C07C0000000001FC00000
0000780780000000000FC00000
0000F80F80000000000FE00000
0000F80F80000000000FE00000
0000F00F000000000007E00000
0001F01F000000000007F00000
0001F01F000000000007F00000
0001E01E000000000003F00000
0003E03E000000000003F80000
0003E03E000000000003F80000
0003C03C000000000001F80000
0007C07C000000000001FC0000
0007C07C000000000001FC0000
00078078000000000000FC0000
000F80F8000000000000FE0000
000F80F8000000000000FE0000
000F00F00000000000007E0000
001F01F00000000000007F0000
001F01F00000000000007F0000
001E01E00000000000003F0000
003E03E00000000000003F8000
003E03E00000000000003F8000
003C03C00000000000001F8000
007C07C00000000000001FC000
007C07C00000000000001FC000
007FFFE00000000000001FE000
FFFFFFFFC0000000003FFFFFC0
FFFFFFFFE0000000003FFFFFE0
FFFFFFFFE0000000003FFFFFE0
FFFFFFFFE0000000003FFFFFE0
FFFFFFFFE0000000003FFFFFE0
00000000000000000000000000
00000000000000000000000000
00000000000000000000000000
00000000000000000000000000
00000000000000000000000000
00000000000000000000000000
00000000000000000000000000
00000000000000000000000000
00000000000000000000000000
00000000000000000000000000
00000000000000000000000000
00000000000000000000000000
00000000000000000000000000
00000000000000000000000000
ENDCHAR
STARTCHAR char66
ENCODING 66
SWIDTH 2475 0
DWIDTH 99 0
BBX 83 112 0 -12
BITMAP
FFFFFFFFFFFFFFFF000000
FFFFFFFFFFFFFFFFE00000
FFFFFFFFFFFFFFFFF00000
FFFFFFFFFFFFFFFFFE0000
7FFFFFFFFFFFFFFFFF0000
00FFFFFFFFFFFFFFFF8000
007F07F00000000FFFC000
007F07F000000001FFE000
007F07F000000000FFF000
007F07F0000000001FF800
007F07F0000000000FFC00
007F07F00000000007FE00
007F07F00000000003FE00
007F07F00000000001FF00
007F07F00000000000FF00
007F07F000000000007F80
007F07F000000000007F80
007F07F000000000003FC0
007F07F000000000003FC0
007F07F000000000001FE0
007F07F000000000001FE0
007F07F000000000001FE0
007F07F000000000001FE0
007F07F000000000001FE0
007F07F000000000001FE0
007F07F000000000001FE0
007F07F000000000001FE0
007F07F000000000001FE0
007F07F000000000001FE0
007F07F000000000001FE0
007F07F000000000001FE0
007F07F000000000003FC0
007F07F000000000003FC0
007F07F000000000007F80
007F07F000000000007F80
007F07F00000000000FF00
007F07F00000000001FF00
007F07F00000000003FE00
007F07F00000000007FE00
007F07F0000000000FFC00
007F07F0000000001FF800
007F07F000000000FFF000
007F07F000000001FFE000
007F07F00000000FFFC000
007F07FFFFFFFFFFFF8000
007F07FFFFFFFFFFFC0000
007F07FFFFFFFFFFF80000
007F07FFFFFFFFFFF00000
007F07FFFFFFFFFFF00000
007F07FFFFFFFFFFF00000
007F07FFFFFFFFFFF00000
007F07FFFFFFFFFFF80000
007F07FFFFFFFFFFFC0000
007F07FFFFFFFFFFFF8000
007F07F00000000FFFC000
007F07F000000001FFE000
007F07F000000000FFF000
007F07F0000000001FF800
007F07F0000000000FFC00
007F07F00000000007FE00
007F07F00000000003FE00
007F07F00000000001FF00
007F07F00000000000FF00
007F07F000000000007F80
007F07F000000000007F80
007F07F000000000003FC0
007F07F000000000003FC0
007F07F000000000001FE0
007F07F000000000001FE0
007F07F000000000001FE0
007F07F000000000001FE0
007F07F000000000001FE0
007F07F000000000001FE0
007F07F000000000001FE0
007F07F000000000001FE0
007F07F000000000001FE0
007F07F000000000001FE0
007F07F000000000001FE0
007F07F000000000001FE0
007F07F000000000003FC0
007F07F000000000003FC0
007F07F000000000007F80
007F07F000000000007F80
007F07F00000000000FF00
007F07F00000000001FF00
007F07F00000000003FE00
007F07F00000000007FE00
007F07F0000000000FFC00
007F07F0000000001FF800
007F07F000000000FFF000
007F07F000000001FFE000
007F07F00000000FFFC000
007FFFFFFFFFFFFFFF8000
FFFFFFFFFFFFFFFFFF0000
FFFFFFFFFFFFFFFFFE0000
FFFFFFFFFFFFFFFFF00000
FFFFFFFFFFFFFFFFE00000
FFFFFFFFFFFFFFFF000000
0000000000000000000000
0000000000000000000000
0000000000000000000000
0000000000000000000000
0000000000000000000000
0000000000000000000000
0000000000000000000000
0000000000000000000000
0000000000000000000000
0000000000000000000000
0000000000000000000000
0000000000000000000000
0000000000000000000000
0000000000000000000000
ENDCHAR
STARTCHAR char67
ENCODING 67
SWIDTH 2325 0
DWIDTH 93 0
BBX 75 112 0 -12
BITMAP
0001FFFFFFFFFFFF0000
0003FFFFFFFFFFFF8000
0007FFFFFFFFFFFFC000
000FFFFFFFFFFFFFE000
001FFFFFFFFFFFFFF000
003FFFFFFFFFFFFFF800
007FF8000000000FFC00
00FFF00000000007FE00
01FFE00000000003FF00
03FFC00000000001FF80
07FFC00000000000FFC0
0FFFC000000000007FE0
1FFFC000000000003FE0
3FFFC000000000001FE0
7FFFC000000000000FE0
FFFFC0000000000007E0
FF9FC0000000000003E0
FF1FC0000000000001E0
FE1FC0000000000001E0
FC1FC0000000000000E0
FC1FC0000000000000E0
FC1FC000000000000060
FC1FC000000000000060
FC1FC000000000000020
FC1FC000000000000000
FC1FC000000000000000
FC1FC000000000000000
FC1FC000000000000000
FC1FC000000000000000
FC1FC000000000000000
FC1FC000000000000000
FC1FC000000000000000
FC1FC000000000000000
FC1FC000000000000000
FC1FC000000000000000
FC1FC000000000000000
FC1FC000000000000000
FC1FC000000000000000
FC1FC000000000000000
FC1FC000000000000000
FC1FC000000000000000
FC1FC000000000000000
FC1FC000000000000000
FC1FC000000000000000
FC1FC000000000000000
FC1FC000000000000000
FC1FC000000000000000
FC1FC000000000000000
FC1FC000000000000000
FC1FC000000000000000
FC1FC000000000000000
FC1FC000000000000000
FC1FC000000000000000
FC1FC000000000000000
FC1FC000000000000000
FC1FC000000000000000
FC1FC000000000000000
FC1FC000000000000000
FC1FC000000000000000
FC1FC000000000000000
FC1FC000000000000000
FC1FC000000000000000
FC1FC000000000000000
FC1FC000000000000000
FC1FC000000000000000
FC1FC000000000000000
FC1FC000000000000000
FC1FC000000000000000
FC1FC000000000000000
FC1FC000000000000000
FC1FC000000000000000
FC1FC000000000000000
FC1FC000000000000000
FC1FC000000000000000
FC1FC000000000000020
FC1FC000000000000060
FC1FC000000000000060
FC1FC0000000000000E0
FC1FC0000000000000E0
FE1FC0000000000001E0
FF1FC0000000000001E0
FF9FC0000000000003E0
FFFFC0000000000007E0
7FFFC000000000000FE0
3FFFC000000000001FE0
1FFFC000000000003FE0
0FFFC000000000007FE0
07FFC00000000000FFC0
03FFC00000000001FF80
01FFE00000000003FF00
00FFF00000000007FE00
007FF8000000000FFC00
003FFFFFFFFFFFFFF800
001FFFFFFFFFFFFFF000
000FFFFFFFFFFFFFE000
0007FFFFFFFFFFFFC000
0003FFFFFFFFFFFF8000
0001FFFFFFFFFFFF0000
00000000000000000000
00000000000000000000
00000000000000000000
00000000000000000000
00000000000000000000
00000000000000000000
00000000000000000000
00000000000000000000
00000000000000000000
00000000000000000000
00000000000000000000
00000000000000000000
00000000000000000000
00000000000000000000
ENDCHAR
STARTCHAR char68
ENCODING 68
SWIDTH 2475 0
DWIDTH 99 0
BBX 83 112 0 -12
BITMAP
FFFFFFFFFFFFFFFF000000
FFFFFFFFFFFFFFFFE00000
FFFFFFFFFFFFFFFFF00000
FFFFFFFFFFFFFFFFFE0000
7FFFFFFFFFFFFFFFFF0000
00FFFFFFFFFFFFFFFF8000
007F07F00000000FFFC000
007F07F000000001FFE000
007F07F000000000FFF000
007F07F0000000001FF800
007F07F0000000000FFC00
007F07F00000000007FE00
007F07F00000000003FE00
007F07F00000000001FF00
007F07F00000000000FF00
007F07F000000000007F80
007F07F000000000007F80
007F07F000000000003FC0
007F07F000000000003FC0
007F07F000000000001FE0
007F07F000000000001FE0
007F07F000000000001FE0
007F07F000000000001FE0
007F07F000000000001FE0
007F07F000000000001FE0
007F07F000000000001FE0
007F07F000000000001FE0
007F07F000000000001FE0
007F07F000000000001FE0
007F07F000000000001FE0
007F07F000000000001FE0
007F07F000000000001FE0
007F07F000000000001FE0
007F07F000000000001FE0
007F07F000000000001FE0
007F07F000000000001FE0
007F07F000000000001FE0
007F07F000000000001FE0
007F07F000000000001FE0
007F07F000000000001FE0
007F07F000000000001FE0
007F07F000000000001FE0
007F07F000000000001FE0
007F07F000000000001FE0
007F07F000000000001FE0
007F07F000000000001FE0
007F07F000000000001FE0
007F07F000000000001FE0
007F07F000000000001FE0
007F07F000000000001FE0
007F07F000000000001FE0
007F07F000000000001FE0
007F07F000000000001FE0
007F07F000000000001FE0
007F07F000000000001FE0
007F07F000000000001FE0
007F07F000000000001FE0
007F07F000000000001FE0
007F07F000000000001FE0
007F07F000000000001FE0
007F07F000000000001FE0
007F07F000000000001FE0
007F07F000000000001FE0
007F07F000000000001FE0
007F07F000000000001FE0
007F07F000000000001FE0
007F07F000000000001FE0
007F07F000000000001FE0
007F07F000000000001FE0
007F07F000000000001FE0
007F07F000000000001FE0
007F07F000000000001FE0
007F07F000000000001FE0
007F07F000000000001FE0
007F07F000000000001FE0
007F07F000000000001FE0
007F07F000000000001FE0
007F07F000000000001FE0
007F07F000000000001FE0
007F07F000000000003FC0
007F07F000000000003FC0
007F07F000000000007F80
007F07F000000000007F80
007F07F00000000000FF00
007F07F00000000001FF00
007F07F00000000003FE00
007F07F00000000007FE00
007F07F0000000000FFC00
007F07F0000000001FF800
007F07F000000000FFF000
007F07F000000001FFE000
007F07F00000000FFFC000
007FFFFFFFFFFFFFFF8000
FFFFFFFFFFFFFFFFFF0000
FFFFFFFFFFFFFFFFFE0000
FFFFFFFFFFFFFFFFF00000
FFFFFFFFFFFFFFFFE00000
FFFFFFFFFFFFFFFF000000
0000000000000000000000
0000000000000000000000
0000000000000000000000
0000000000000000000000
0000000000000000000000
0000000000000000000000
0000000000000000000000
0000000000000000000000
0000000000000000000000
0000000000000000000000
0000000000000000000000
0000000000000000000000
0000000000000000000000
0000000000000000000000
ENDCHAR
STARTCHAR char69
ENCODING 69
SWIDTH 2475 0
DWIDTH 99 0
BBX 81 112 0 -12
BITMAP
FFFFFFFFFFFFFFFFFFFF80
FFFFFFFFFFFFFFFFFFFF80
FFFFFFFFFFFFFFFFFFFF80
FFFFFFFFFFFFFFFFFFFF80
7FFFFFFFFFFFFFFFFFFF80
00FFFFFFFFFFFFFFFFFF80
007F07F00000000000FF80
007F07F000000000007F80
007F07F000000000003F80
007F07F000000000001F80
007F07F000000000000F80
007F07F000000000000780
007F07F000000000000780
007F07F000000000000380
007F07F000000000000380
007F07F000000000000180
007F07F000000000000180
007F07F000000000000080
007F07F000000000000000
007F07F000000000000000
007F07F000000000000000
007F07F000000000000000
007F07F000000000000000
007F07F000000000000000
007F07F000000000000000
007F07F000000000000000
007F07F000000000000000
007F07F000000000000000
007F07F000000000000000
007F07F000000000000000
007F07F000000000000000
007F07F000000000000000
007F07F000000000000000
007F07F000000000000000
007F07F000000000000000
007F07F000000000000000
007F07F000000000000000
007F07F000000000000000
007F07F000008000000000
007F07F000018000000000
007F07F000018000000000
007F07F000038000000000
007F07F000078000000000
007F07F0000F8000000000
007F07FFFFFF8000000000
007F07FFFFFF8000000000
007F07FFFFFF8000000000
007F07FFFFFF8000000000
007F07FFFFFF8000000000
007F07FFFFFF8000000000
007F07FFFFFF8000000000
007F07FFFFFF8000000000
007F07FFFFFF8000000000
007F07FFFFFF8000000000
007F07F0000F8000000000
007F07F000078000000000
007F07F000038000000000
007F07F000018000000000
007F07F000018000000000
007F07F000008000000000
007F07F000000000000000
007F07F000000000000000
007F07F000000000000000
007F07F000000000000000
007F07F000000000000000
007F07F000000000000000
007F07F000000000000000
007F07F000000000000000
007F07F000000000000000
007F07F000000000000000
007F07F000000000000000
007F07F000000000000000
007F07F000000000000000
007F07F000000000000000
007F07F000000000000000
007F07F000000000000000
007F07F000000000000000
007F07F000000000000000
007F07F000000000000000
007F07F000000000000000
007F07F000000000000080
007F07F000000000000180
007F07F000000000000180
007F07F000000000000380
007F07F000000000000380
007F07F000000000000780
007F07F000000000000780
007F07F000000000000F80
007F07F000000000001F80
007F07F000000000003F80
007F07F000000000007F80
007F07F00000000000FF80
007FFFFFFFFFFFFFFFFF80
FFFFFFFFFFFFFFFFFFFF80
FFFFFFFFFFFFFFFFFFFF80
FFFFFFFFFFFFFFFFFFFF80
FFFFFFFFFFFFFFFFFFFF80
FFFFFFFFFFFFFFFFFFFF80
0000000000000000000000
0000000000000000000000
0000000000000000000000
0000000000000000000000
0000000000000000000000
0000000000000000000000
0000000000000000000000
0000000000000000000000
0000000000000000000000
0000000000000000000000
0000000000000000000000
0000000000000000000000
0000000000000000000000
0000000000000000000000
ENDCHAR
STARTCHAR char70
ENCODING 70
SWIDTH 2475 0
DWIDTH 99 0
BBX 81 112 0 -12
BITMAP
FFFFFFFFFFFFFFFFFFFF80
FFFFFFFFFFFFFFFFFFFF80
FFFFFFFFFFFFFFFFFFFF80
FFFFFFFFFFFFFFFFFFFF80
7FFFFFFFFFFFFFFFFFFF80
00FFFFFFFFFFFFFFFFFF80
007F07F00000000003FF80
007F07F000000000007F80
007F07F000000000003F80
007F07F000000000001F80
007F07F000000000000F80
007F07F000000000000780
007F07F000000000000780
007F07F000000000000380
007F07F000000000000380
007F07F000000000000180
007F07F000000000000180
007F07F000000000000080
007F07F000000000000000
007F07F000000000000000
007F07F000000000000000
007F07F000000000000000
007F07F000000000000000
007F07F000000000000000
007F07F000000000000000
007F07F000000000000000
007F07F000000000000000
007F07F000000000000000
007F07F000000000000000
007F07F000000000000000
007F07F000000000000000
007F07F000000000000000
007F07F000000000000000
007F07F000000000000000
007F07F000000000000000
007F07F000000000000000
007F07F000000000000000
007F07F000000000000000
007F07F000008000000000
007F07F000018000000000
007F07F000018000000000
007F07F000038000000000
007F07F000078000000000
007F07F0000F8000000000
007F07FFFFFF8000000000
007F07FFFFFF8000000000
007F07FFFFFF8000000000
007F07FFFFFF8000000000
007F07FFFFFF8000000000
007F07FFFFFF8000000000
007F07FFFFFF8000000000
007F07FFFFFF8000000000
007F07FFFFFF8000000000
007F07FFFFFF8000000000
007F07F0000F8000000000
007F07F000078000000000
007F07F000038000000000
007F07F000018000000000
007F07F000018000000000
007F07F000008000000000
007F07F000000000000000
007F07F000000000000000
007F07F000000000000000
007F07F000000000000000
007F07F000000000000000
007F07F000000000000000
007F07F000000000000000
007F07F000000000000000
007F07F000000000000000
007F07F000000000000000
007F07F000000000000000
007F07F000000000000000
007F07F000000000000000
007F07F000000000000000
007F07F000000000000000
007F07F000000000000000
007F07F000000000000000
007F07F000000000000000
007F07F000000000000000
007F07F000000000000000
007F07F000000000000000
007F07F000000000000000
007F07F000000000000000
007F07F000000000000000
007F07F000000000000000
007F07F000000000000000
007F07F000000000000000
007F07F000000000000000
007F07F000000000000000
007F07F000000000000000
007F07F000000000000000
007F07F000000000000000
007FFFF800000000000000
FFFFFFFFF0000000000000
FFFFFFFFF8000000000000
FFFFFFFFF8000000000000
FFFFFFFFF8000000000000
FFFFFFFFF8000000000000
0000000000000000000000
0000000000000000000000
0000000000000000000000
0000000000000000000000
0000000000000000000000
0000000000000000000000
0000000000000000000000
0000000000000000000000
0000000000000000000000
0000000000000000000000
0000000000000000000000
0000000000000000000000
0000000000000000000000
0000000000000000000000
ENDCHAR
STARTCHAR char71
ENCODING 71
SWIDTH 2325 0
DWIDTH 93 0
BBX 75 112 0 -12
BITMAP
0001FFFFFFFFFFFF0000
0003FFFFFFFFFFFF8000
0007FFFFFFFFFFFFC000
000FFFFFFFFFFFFFE000
001FFFFFFFFFFFFFF000
003FFFFFFFFFFFFFF800
007FF8000000000FFC00
00FFF00000000007FE00
01FFE00000000003FF00
03FFC00000000001FF80
07FFC00000000000FFC0
0FFFC000000000007FE0
1FFFC000000000003FE0
3FFFC000000000001FE0
7FFFC000000000000FE0
FFFFC0000000000007E0
FF9FC0000000000003E0
FF1FC0000000000001E0
FE1FC0000000000001E0
FC1FC0000000000000E0
FC1FC0000000000000E0
FC1FC000000000000060
FC1FC000000000000060
FC1FC000000000000020
FC1FC000000000000000
FC1FC000000000000000
FC1FC000000000000000
FC1FC000000000000000
FC1FC000000000000000
FC1FC000000000000000
FC1FC000000000000000
FC1FC000000000000000
FC1FC000000000000000
FC1FC000000000000000
FC1FC000000000000000
FC1FC000000000000000
FC1FC000000000000000
FC1FC000000000000000
FC1FC000000000000000
FC1FC000000000000000
FC1FC000000000000000
FC1FC000000000000000
FC1FC000000000000000
FC1FC000000000000000
FC1FC000000000000000
FC1FC000000000000000
FC1FC000000000000000
FC1FC000000000000000
FC1FC000000000000000
FC1FC000000000000000
FC1FC000000000000000
FC1FC000000000000000
FC1FC000000000000000
FC1FC000000000000000
FC1FC000000000000000
FC1FC000000000000000
FC1FC000000FFFFFFFE0
FC1FC000000FFFFFFFE0
FC1FC000000FFFFFFFE0
FC1FC000000FFFFFFFE0
FC1FC000000FFFFFFFE0
FC1FC000000FFFFFFFE0
FC1FC0000003FFFFFFE0
FC1FC000000000007FE0
FC1FC000000000001FE0
FC1FC000000000001FE0
FC1FC000000000001FE0
FC1FC000000000001FE0
FC1FC000000000001FE0
FC1FC000000000001FE0
FC1FC000000000001FE0
FC1FC000000000001FE0
FC1FC000000000001FE0
FC1FC000000000001FE0
FC1FC000000000001FE0
FC1FC000000000001FE0
FC1FC000000000001FE0
FC1FC000000000001FE0
FC1FC000000000001FE0
FE1FC000000000001FE0
FF1FC000000000001FE0
FF9FC000000000001FE0
FFFFC000000000001FE0
7FFFC000000000001FE0
3FFFC000000000001FE0
1FFFC000000000003FE0
0FFFC000000000007FE0
07FFC00000000000FFC0
03FFC00000000001FF80
01FFE00000000003FF00
00FFF00000000007FE00
007FF8000000000FFC00
003FFFFFFFFFFFFFF800
001FFFFFFFFFFFFFF000
000FFFFFFFFFFFFFE000
0007FFFFFFFFFFFFC000
0003FFFFFFFFFFFF8000
0001FFFFFFFFFFFF0000
00000000000000000000
00000000000000000000
00000000000000000000
00000000000000000000
00000000000000000000
00000000000000000000
00000000000000000000
00000000000000000000
00000000000000000000
00000000000000000000
00000000000000000000
00000000000000000000
00000000000000000000
00000000000000000000
ENDCHAR
STARTCHAR char72
ENCODING 72
SWIDTH 2775 0
DWIDTH 111 0
BBX 93 112 0 -12
BITMAP
FFFFFFFFF80000003FFFFFF8
FFFFFFFFF80000003FFFFFF8
FFFFFFFFF80000003FFFFFF8
FFFFFFFFF80000003FFFFFF8
7FFFFFFFF80000001FFFFFF8
00FFFFF000000000003FF000
007F07F000000000001FF000
007F07F000000000001FF000
007F07F000000000001FF000
007F07F000000000001FF000
007F07F000000000001FF000
007F07F000000000001FF000
007F07F000000000001FF000
007F07F000000000001FF000
007F07F000000000001FF000
007F07F000000000001FF000
007F07F000000000001FF000
007F07F000000000001FF000
007F07F000000000001FF000
007F07F000000000001FF000
007F07F000000000001FF000
007F07F000000000001FF000
007F07F000000000001FF000
007F07F000000000001FF000
007F07F000000000001FF000
007F07F000000000001FF000
007F07F000000000001FF000
007F07F000000000001FF000
007F07F000000000001FF000
007F07F000000000001FF000
007F07F000000000001FF000
007F07F000000000001FF000
007F07F000000000001FF000
007F07F000000000001FF000
007F07F000000000001FF000
007F07F000000000001FF000
007F07F000000000001FF000
007F07F000000000001FF000
007F07F000000000001FF000
007F07F000000000001FF000
007F07F000000000001FF000
007F07F000000000001FF000
007F07F000000000001FF000
007F07F000000000001FF000
007F07FFFFFFFFFFFFFFF000
007F07FFFFFFFFFFFFFFF000
007F07FFFFFFFFFFFFFFF000
007F07FFFFFFFFFFFFFFF000
007F07FFFFFFFFFFFFFFF000
007F07FFFFFFFFFFFFFFF000
007F07FFFFFFFFFFFFFFF000
007F07FFFFFFFFFFFFFFF000
007F07FFFFFFFFFFFFFFF000
007F07FFFFFFFFFFFFFFF000
007F07F000000000001FF000
007F07F000000000001FF000
007F07F000000000001FF000
007F07F000000000001FF000
007F07F000000000001FF000
007F07F000000000001FF000
007F07F000000000001FF000
007F07F000000000001FF000
007F07F000000000001FF000
007F07F000000000001FF000
007F07F000000000001FF000
007F07F000000000001FF000
007F07F000000000001FF000
007F07F000000000001FF000
007F07F000000000001FF000
007F07F000000000001FF000
007F07F000000000001FF000
007F07F000000000001FF000
007F07F000000000001FF000
007F07F000000000001FF000
007F07F000000000001FF000
007F07F000000000001FF000
007F07F000000000001FF000
007F07F000000000001FF000
007F07F000000000001FF000
007F07F000000000001FF000
007F07F000000000001FF000
007F07F000000000001FF000
007F07F000000000001FF000
007F07F000000000001FF000
007F07F000000000001FF000
007F07F000000000001FF000
007F07F000000000001FF000
007F07F000000000001FF000
007F07F000000000001FF000
007F07F000000000001FF000
007F07F000000000001FF000
007F07F000000000001FF000
007FFFF800000000001FF800
FFFFFFFFF00000003FFFFFF0
FFFFFFFFF80000003FFFFFF8
FFFFFFFFF80000003FFFFFF8
FFFFFFFFF80000003FFFFFF8
FFFFFFFFF80000003FFFFFF8
000000000000000000000000
000000000000000000000000
000000000000000000000000
000000000000000000000000
000000000000000000000000
000000000000000000000000
000000000000000000000000
000000000000000000000000
000000000000000000000000
000000000000000000000000
000000000000000000000000
000000000000000000000000
000000000000000000000000
000000000000000000000000
ENDCHAR
STARTCHAR char73
ENCODING 73
SWIDTH 1325 0
DWIDTH 53 0
BBX 37 112 0 -12
BITMAP
FFFFFFFFF8
FFFFFFFFF8
FFFFFFFFF8
FFFFFFFFF8
7FFFFFFFF8
00FFFFF000
007F07F000
007F07F000
007F07F000
007F07F000
007F07F000
007F07F000
007F07F000
007F07F000
007F07F000
007F07F000
007F07F000
007F07F000
007F07F000
007F07F000
007F07F000
007F07F000
007F07F000
007F07F000
007F07F000
007F07F000
007F07F000
007F07F000
007F07F000
007F07F000
007F07F000
007F07F000
007F07F000
007F07F000
007F07F000
007F07F000
007F07F000
007F07F000
007F07F000
007F07F000
007F07F000
007F07F000
007F07F000
007F07F000
007F07F000
007F07F000
007F07F000
007F07F000
007F07F000
007F07F000
007F07F000
007F07F000
007F07F000
007F07F000
007F07F000
007F07F000
007F07F000
007F07F000
007F07F000
007F07F000
007F07F000
007F07F000
007F07F000
007F07F000
007F07F000
007F07F000
007F07F000
007F07F000
007F07F000
007F07F000
007F07F000
007F07F000
007F07F000
007F07F000
007F07F000
007F07F000
007F07F000
007F07F000
007F07F000
007F07F000
007F07F000
007F07F000
007F07F000
007F07F000
007F07F000
007F07F000
007F07F000
007F07F000
007F07F000
007F07F000
007F07F000
007F07F000
007FFFF800
FFFFFFFFF0
FFFFFFFFF8
FFFFFFFFF8
FFFFFFFFF8
FFFFFFFFF8
0000000000
0000000000
0000000000
0000000000
0000000000
0000000000
0000000000
0000000000
0000000000
0000000000
0000000000
0000000000
0000000000
0000000000
ENDCHAR
STARTCHAR char74
ENCODING 74
SWIDTH 2475 0
DWIDTH 99 0
BBX 81 112 0 -12
BITMAP
00000000000FFFFFFFFF80
00000000000FFFFFFFFF80
00000000000FFFFFFFFF80
00000000000FFFFFFFFF80
000000000007FFFFFFFF80
0000000000000FFFFF0000
00000000000007F07F0000
00000000000007F07E0000
00000000000007F07E0000
00000000000007F07E0000
00000000000007F07E0000
00000000000007F07E0000
00000000000007F07E0000
00000000000007F07E0000
00000000000007F07E0000
00000000000007F07E0000
00000000000007F07E0000
00000000000007F07E0000
00000000000007F07E0000
00000000000007F07E0000
00000000000007F07E0000
00000000000007F07E0000
00000000000007F07E0000
00000000000007F07E0000
00000000000007F07E0000
00000000000007F07E0000
00000000000007F07E0000
00000000000007F07E0000
00000000000007F07E0000
00000000000007F07E0000
00000000000007F07E0000
00000000000007F07E0000
00000000000007F07E0000
00000000000007F07E0000
00000000000007F07E0000
00000000000007F07E0000
00000000000007F07E0000
00000000000007F07E0000
00000000000007F07E0000
00000000000007F07E0000
00000000000007F07E0000
00000000000007F07E0000
00000000000007F07E0000
00000000000007F07E0000
00000000000007F07E0000
00000000000007F07E0000
00000000000007F07E0000
00000000000007F07E0000
00000000000007F07E0000
00000000000007F07E0000
00000000000007F07E0000
00000000000007F07E0000
00000000000007F07E0000
00000000000007F07E0000
00000000000007F07E0000
00000000000007F07E0000
00000000000007F07E0000
00000000000007F07E0000
00000000000007F07E0000
00000000000007F07E0000
00000000000007F07E0000
00000000000007F07E0000
00000000000007F07E0000
00000000000007F07E0000
00000000000007F07E0000
00000000000007F07E0000
00000000000007F07E0000
00000000000007F07E0000
00000000000007F07E0000
00000000000007F07E0000
FFFFFFE0000007F07E0000
FFFFFFE0000007F07E0000
FFFFFFE0000007F07E0000
FFFFFFE0000007F07E0000
7FFFFFE0000007F07E0000
00FFC000000007F07E0000
007FC000000007F07E0000
007FC000000007F0FE0000
003FC000000007F1FE0000
003FC000000007F3FC0000
003FC000000007FFF80000
001FE000000007FFF00000
000FF000000007FFF00000
0007F800000007FFE00000
0007F800000007FFE00000
0003FC00000007FFC00000
0003FC00000007FF800000
0001FE00000007FF000000
0000FE00000007FF000000
00007F00000007FE000000
00007F00000007FE000000
00003F8000000FFC000000
00003FFFFFFFFFF8000000
00001FFFFFFFFFF0000000
00001FFFFFFFFFF0000000
00000FFFFFFFFFE0000000
00000FFFFFFFFFE0000000
000007FFFFFFFFC0000000
0000000000000000000000
0000000000000000000000
0000000000000000000000
0000000000000000000000
0000000000000000000000
0000000000000000000000
0000000000000000000000
0000000000000000000000
0000000000000000000000
0000000000000000000000
0000000000000000000000
0000000000000000000000
0000000000000000000000
0000000000000000000000
ENDCHAR
STARTCHAR char75
ENCODING 75
SWIDTH 2825 0
DWIDTH 113 0
BBX 95 112 0 -12
BITMAP
FFFFFFFFF80000003FFFFFFE
FFFFFFFFF80000003FFFFFFE
FFFFFFFFF80000003FFFFFFE
FFFFFFFFF80000003FFFFFFE
7FFFFFFFF80000001FFFFFFC
00FFFFF000000000003FF800
007F07F000000000001FE000
007F07F000000000003FC000
007F07F000000000007F8000
007F07F00000000000FF0000
007F07F00000000001FE0000
007F07F00000000003FC0000
007F07F00000000007F80000
007F07F0000000000FF00000
007F07F0000000001FE00000
007F07F0000000003FC00000
007F07F0000000007F800000
007F07F000000000FF000000
007F07F000000001FE000000
007F07F000000003FC000000
007F07F000000007F8000000
007F07F00000000FF0000000
007F07F00000001FE0000000
007F07F00000003FC0000000
007F07F00000007F80000000
007F07F0000000FF00000000
007F07F0000001FE00000000
007F07F0000003FC00000000
007F07F0000007F800000000
007F07F000000FF000000000
007F07F000001FE000000000
007F07F000003FC000000000
007F07F000007F8000000000
007F07F00000FF0000000000
007F07F00001FE0000000000
007F07F00003FC0000000000
007F07F00007F80000000000
007F07F0000FF00000000000
007F07F0001FE00000000000
007F07F0003FC00000000000
007F07F0007F800000000000
007F07F000FF000000000000
007F07F001FE000000000000
007F07F003FC000000000000
007F07F007F8000000000000
007F07F00FF0000000000000
007F07F01FE0000000000000
007F07F03FC0000000000000
007F07F07FC0000000000000
007F07F0FFC0000000000000
007F07F1FFC0000000000000
007F07F3FFE0000000000000
007F07FFFFF0000000000000
007F07FFFFF8000000000000
007F07FFE3FC000000000000
007F07FFC1FE000000000000
007F07FF80FF000000000000
007F07FF007F800000000000
007F07FE003FC00000000000
007F07FC001FE00000000000
007F07F8000FF00000000000
007F07F00007F80000000000
007F07F00003FC0000000000
007F07F00001FE0000000000
007F07F00000FF0000000000
007F07F000007F8000000000
007F07F000003FC000000000
007F07F000001FE000000000
007F07F000000FF000000000
007F07F0000007F800000000
007F07F0000003FC00000000
007F07F0000001FE00000000
007F07F0000000FF00000000
007F07F00000007F80000000
007F07F00000003FC0000000
007F07F00000001FE0000000
007F07F00000000FF0000000
007F07F000000007F8000000
007F07F000000003FC000000
007F07F000000001FE000000
007F07F000000000FF000000
007F07F0000000007F800000
007F07F0000000003FC00000
007F07F0000000001FE00000
007F07F0000000000FF00000
007F07F00000000007F80000
007F07F00000000003FC0000
007F07F00000000001FE0000
007F07F00000000000FF0000
007F07F000000000007F8000
007F07F000000000003FC000
007F07F000000000001FE000
007FFFF800000000001FF800
FFFFFFFFF00000003FFFFFFC
FFFFFFFFF80000003FFFFFFE
FFFFFFFFF80000003FFFFFFE
FFFFFFFFF80000003FFFFFFE
FFFFFFFFF80000003FFFFFFE
000000000000000000000000
000000000000000000000000
000000000000000000000000
000000000000000000000000
000000000000000000000000
000000000000000000000000
000000000000000000000000
000000000000000000000000
000000000000000000000000
000000000000000000000000
000000000000000000000000
000000000000000000000000
000000000000000000000000
000000000000000000000000
ENDCHAR
STARTCHAR char76
ENCODING 76
SWIDTH 2475 0
DWIDTH 99 0
BBX 81 112 0 -12
BITMAP
FFFFFFFFF8000000000000
FFFFFFFFF8000000000000
FFFFFFFFF8000000000000
FFFFFFFFF8000000000000
7FFFFFFFF8000000000000
00FFFFF000000000000000
007F07F000000000000000
007F07F000000000000000
007F07F000000000000000
007F07F000000000000000
007F07F000000000000000
007F07F000000000000000
007F07F000000000000000
007F07F000000000000000
007F07F000000000000000
007F07F000000000000000
007F07F000000000000000
007F07F000000000000000
007F07F000000000000000
007F07F000000000000000
007F07F000000000000000
007F07F000000000000000
007F07F000000000000000
007F07F000000000000000
007F07F000000000000000
007F07F000000000000000
007F07F000000000000000
007F07F000000000000000
007F07F000000000000000
007F07F000000000000000
007F07F000000000000000
007F07F000000000000000
007F07F000000000000000
007F07F000000000000000
007F07F000000000000000
007F07F000000000000000
007F07F000000000000000
007F07F000000000000000
007F07F000000000000000
007F07F000000000000000
007F07F000000000000000
007F07F000000000000000
007F07F000000000000000
007F07F000000000000000
007F07F000000000000000
007F07F000000000000000
007F07F000000000000000
007F07F000000000000000
007F07F000000000000000
007F07F000000000000000
007F07F000000000000000
007F07F000000000000000
007F07F000000000000000
007F07F000000000000000
007F07F000000000000000
007F07F000000000000000
007F07F000000000000000
007F07F000000000000000
007F07F000000000000000
007F07F000000000000000
007F07F000000000000000
007F07F000000000000000
007F07F000000000000000
007F07F000000000000000
007F07F000000000000000
007F07F000000000000000
007F07F000000000000000
007F07F000000000000000
007F07F000000000000000
007F07F000000000000000
007F07F000000000000000
007F07F000000000000000
007F07F000000000000000
007F07F000000000000000
007F07F000000000000000
007F07F000000000000000
007F07F000000000000000
007F07F000000000000000
007F07F000000000000000
007F07F000000000000000
007F07F000000000000080
007F07F000000000000180
007F07F000000000000180
007F07F000000000000380
007F07F000000000000380
007F07F000000000000780
007F07F000000000000780
007F07F000000000000F80
007F07F000000000001F80
007F07F000000000003F80
007F07F000000000007F80
007F07F00000000000FF80
007FFFFFFFFFFFFFFFFF80
FFFFFFFFFFFFFFFFFFFF80
FFFFFFFFFFFFFFFFFFFF80
FFFFFFFFFFFFFFFFFFFF80
FFFFFFFFFFFFFFFFFFFF80
FFFFFFFFFFFFFFFFFFFF80
0000000000000000000000
0000000000000000000000
0000000000000000000000
0000000000000000000000
0000000000000000000000
0000000000000000000000
0000000000000000000000
0000000000000000000000
0000000000000000000000
0000000000000000000000
0000000000000000000000
0000000000000000000000
0000000000000000000000
0000000000000000000000
ENDCHAR
STARTCHAR char77
ENCODING 77
SWIDTH 3825 0
DWIDTH 153 0
BBX 135 112 0 -12
BITMAP
FFFFFFFFF800000000000000003FFFFFFE
FFFFFFFFF800000000000000003FFFFFFE
FFFFFFFFF800000000000000003FFFFFFE
FFFFFFFFF800000000000000003FFFFFFE
7FFFFFFFF800000000000000001FFFFFFE
00FFFFFC000000000000000000003FFC00
007F07FC000000000000000000001FFC00
007F07FE000000000000000000003FFC00
007F07FE000000000000000000003FFC00
007F07FF000000000000000000007FFC00
007F07FF000000000000000000007FFC00
007F07FF80000000000000000000FFFC00
007F07FF80000000000000000000FFFC00
007F07FFC0000000000000000001FFFC00
007F07FFC0000000000000000001FFFC00
007F07FFE0000000000000000003FFFC00
007F07F7E0000000000000000003F7FC00
007F07F3F0000000000000000007E7FC00
007F07F3F0000000000000000007E7FC00
007F07F1F800000000000000000FC7FC00
007F07F1F800000000000000000FC7FC00
007F07F0FC00000000000000001F87FC00
007F07F0FC00000000000000001F87FC00
007F07F07E00000000000000003F07FC00
007F07F07E00000000000000003F07FC00
007F07F03F00000000000000007E07FC00
007F07F03F00000000000000007E07FC00
007F07F01F8000000000000000FC07FC00
007F07F01F8000000000000000FC07FC00
007F07F00FC000000000000001F807FC00
007F07F00FC000000000000001F807FC00
007F07F007E000000000000003F007FC00
007F07F007E000000000000003F007FC00
007F07F003F000000000000007E007FC00
007F07F003F000000000000007E007FC00
007F07F001F80000000000000FC007FC00
007F07F001F80000000000000FC007FC00
007F07F000FC0000000000001F8007FC00
007F07F000FC0000000000001F8007FC00
007F07F0007E0000000000003F0007FC00
007F07F0007E0000000000003F0007FC00
007F07F0003F0000000000007E0007FC00
007F07F0003F0000000000007E0007FC00
007F07F0001F800000000000FC0007FC00
007F07F0001F800000000000FC0007FC00
007F07F0000FC00000000001F80007FC00
007F07F0000FC00000000001F80007FC00
007F07F00007E00000000003F00007FC00
007F07F00007E00000000003F00007FC00
007F07F00003F00000000007E00007FC00
007F07F00003F00000000007E00007FC00
007F07F00001F8000000000FC00007FC00
007F07F00001F8000000000FC00007FC00
007F07F00000FC000000001F800007FC00
007F07F00000FC000000001F800007FC00
007F07F000007E000000003F000007FC00
007F07F000007E000000003F000007FC00
007F07F000003F000000007E000007FC00
007F07F000003F000000007E000007FC00
007F07F000001F80000000FC000007FC00
007F07F000001F80000000FC000007FC00
007F07F000000FC0000001F8000007FC00
007F07F000000FC0000001F8000007FC00
007F07F0000007E0000003F0000007FC00
007F07F0000007E0000003F0000007FC00
007F07F0000003F0000007E0000007FC00
007F07F0000003F0000007E0000007FC00
007F07F0000001F800000FC0000007FC00
007F07F0000001F800000FC0000007FC00
007F07F0000000FC00001F80000007FC00
007F07F0000000FC00001F80000007FC00
007F07F00000007E00003F00000007FC00
007F07F00000007E00003F00000007FC00
007F07F00000003F00007E00000007FC00
007F07F00000003F00007E00000007FC00
007F07F00000001F8000FC00000007FC00
007F07F00000001F8000FC00000007FC00
007F07F00000000FC001F800000007FC00
007F07F00000000FC001F800000007FC00
007F07F000000007E003F000000007FC00
007F07F000000007E003F000000007FC00
007F07F000000003F007E000000007FC00
007F07F000000003F007E000000007FC00
007F07F000000001F80FC000000007FC00
007F07F000000001F80FC000000007FC00
007F07F000000000FC1F8000000007FC00
007F07F000000000FFFF8000000007FC00
007F07F0000000007FFF0000000007FC00
007F07F0000000007FFF0000000007FC00
007F07F0000000003FFE0000000007FC00
007F07F0000000003FFE0000000007FC00
007F07F0000000001FFC0000000007FC00
007FFFF8000000001FFC0000000007FE00
FFFFFFFFF00000000FF80000000FFFFFFC
FFFFFFFFF800000000000000000FFFFFFE
FFFFFFFFF800000000000000000FFFFFFE
FFFFFFFFF800000000000000000FFFFFFE
FFFFFFFFF800000000000000000FFFFFFE
0000000000000000000000000000000000
0000000000000000000000000000000000
0000000000000000000000000000000000
0000000000000000000000000000000000
0000000000000000000000000000000000
0000000000000000000000000000000000
0000000000000000000000000000000000
0000000000000000000000000000000000
0000000000000000000000000000000000
0000000000000000000000000000000000
0000000000000000000000000000000000
0000000000000000000000000000000000
0000000000000000000000000000000000
0000000000000000000000000000000000
ENDCHAR
STARTCHAR char78
ENCODING 78
SWIDTH 3225 0
DWIDTH 129 0
BBX 111 112 0 -12
BITMAP
FFFFFFFFF800000000003FFFFFFE
FFFFFFFFF800000000003FFFFFFE
FFFFFFFFF800000000003FFFFFFE
FFFFFFFFF800000000003FFFFFFE
7FFFFFFFF800000000001FFFFFFE
00FFFFFC000000000000000FFC00
007F07FC0000000000000007FC00
007F07FE0000000000000007F800
007F07FF0000000000000007F800
007F07FF8000000000000007F800
007F07FFC000000000000007F800
007F07FFE000000000000007F800
007F07FFF000000000000007F800
007F07FFF800000000000007F800
007F07FFFC00000000000007F800
007F07FFFE00000000000007F800
007F07F3FF00000000000007F800
007F07F1FF80000000000007F800
007F07F0FF80000000000007F800
007F07F07FC0000000000007F800
007F07F03FC0000000000007F800
007F07F01FE0000000000007F800
007F07F01FF0000000000007F800
007F07F00FF8000000000007F800
007F07F00FF8000000000007F800
007F07F007FC000000000007F800
007F07F003FC000000000007F800
007F07F001FE000000000007F800
007F07F001FF000000000007F800
007F07F000FF800000000007F800
007F07F000FFC00000000007F800
007F07F0007FE00000000007F800
007F07F0003FF00000000007F800
007F07F0001FF80000000007F800
007F07F0000FF80000000007F800
007F07F00007FC0000000007F800
007F07F00003FC0000000007F800
007F07F00001FE0000000007F800
007F07F00001FF0000000007F800
007F07F00000FF8000000007F800
007F07F00000FFC000000007F800
007F07F000007FE000000007F800
007F07F000003FE000000007F800
007F07F000001FF000000007F800
007F07F000000FF000000007F800
007F07F0000007F800000007F800
007F07F0000007FC00000007F800
007F07F0000003FE00000007F800
007F07F0000003FF00000007F800
007F07F0000001FF80000007F800
007F07F0000000FF80000007F800
007F07F00000007FC0000007F800
007F07F00000003FC0000007F800
007F07F00000001FE0000007F800
007F07F00000001FF0000007F800
007F07F00000000FF8000007F800
007F07F00000000FFC000007F800
007F07F000000007FE000007F800
007F07F000000003FE000007F800
007F07F000000001FF000007F800
007F07F000000000FF000007F800
007F07F0000000007F800007F800
007F07F0000000007FC00007F800
007F07F0000000003FE00007F800
007F07F0000000003FF00007F800
007F07F0000000001FF80007F800
007F07F0000000000FF80007F800
007F07F00000000007FC0007F800
007F07F00000000003FC0007F800
007F07F00000000001FE0007F800
007F07F00000000001FF0007F800
007F07F00000000000FF8007F800
007F07F00000000000FFC007F800
007F07F000000000007FE007F800
007F07F000000000003FE007F800
007F07F000000000001FF007F800
007F07F000000000000FF007F800
007F07F0000000000007F807F800
007F07F0000000000007FC07F800
007F07F0000000000003FE07F800
007F07F0000000000003FF07F800
007F07F0000000000001FF87F800
007F07F0000000000000FF87F800
007F07F00000000000007FC7F800
007F07F00000000000003FC7F800
007F07F00000000000001FE7F800
007F07F00000000000001FFFF800
007F07F00000000000000FFFF800
007F07F00000000000000FFFF800
007F07F000000000000007FFF800
007F07F000000000000003FFF800
007F07F000000000000001FFF800
007FFFF800000000000000FFF800
FFFFFFFFF00000000000007FF800
FFFFFFFFF80000000000003FF800
FFFFFFFFF80000000000001FF800
FFFFFFFFF80000000000001FF800
FFFFFFFFF80000000000000FF800
0000000000000000000000000000
0000000000000000000000000000
0000000000000000000000000000
0000000000000000000000000000
0000000000000000000000000000
0000000000000000000000000000
0000000000000000000000000000
0000000000000000000000000000
0000000000000000000000000000
0000000000000000000000000000
0000000000000000000000000000
0000000000000000000000000000
0000000000000000000000000000
0000000000000000000000000000
ENDCHAR
STARTCHAR char79
ENCODING 79
SWIDTH 2475 0
DWIDTH 99 0
BBX 81 112 0 -12
BITMAP
0001FFFFFFFFFFFF000000
0003FFFFFFFFFFFF800000
0007FFFFFFFFFFFFC00000
000FFFFFFFFFFFFFE00000
001FFFFFFFFFFFFFF00000
003FFFFFFFFFFFFFF80000
007FF8000000000FFC0000
00FFF00000000007FE0000
01FFE00000000003FF0000
03FFC00000000001FF8000
07FFC00000000000FFC000
0FFFC000000000007FE000
1FFFC000000000003FF000
3FFFC000000000001FF800
7FFFC000000000000FFC00
FFFFC0000000000007FE00
FF9FC0000000000003FF00
FF1FC0000000000001FF80
FE1FC0000000000000FF80
FC1FC00000000000007F80
FC1FC00000000000007F80
FC1FC00000000000007F80
FC1FC00000000000007F80
FC1FC00000000000007F80
FC1FC00000000000007F80
FC1FC00000000000007F80
FC1FC00000000000007F80
FC1FC00000000000007F80
FC1FC00000000000007F80
FC1FC00000000000007F80
FC1FC00000000000007F80
FC1FC00000000000007F80
FC1FC00000000000007F80
FC1FC00000000000007F80
FC1FC00000000000007F80
FC1FC00000000000007F80
FC1FC00000000000007F80
FC1FC00000000000007F80
FC1FC00000000000007F80
FC1FC00000000000007F80
FC1FC00000000000007F80
FC1FC00000000000007F80
FC1FC00000000000007F80
FC1FC00000000000007F80
FC1FC00000000000007F80
FC1FC00000000000007F80
FC1FC00000000000007F80
FC1FC00000000000007F80
FC1FC00000000000007F80
FC1FC00000000000007F80
FC1FC00000000000007F80
FC1FC00000000000007F80
FC1FC00000000000007F80
FC1FC00000000000007F80
FC1FC00000000000007F80
FC1FC00000000000007F80
FC1FC00000000000007F80
FC1FC00000000000007F80
FC1FC00000000000007F80
FC1FC00000000000007F80
FC1FC00000000000007F80
FC1FC00000000000007F80
FC1FC00000000000007F80
FC1FC00000000000007F80
FC1FC00000000000007F80
FC1FC00000000000007F80
FC1FC00000000000007F80
FC1FC00000000000007F80
FC1FC00000000000007F80
FC1FC00000000000007F80
FC1FC00000000000007F80
FC1FC00000000000007F80
FC1FC00000000000007F80
FC1FC00000000000007F80
FC1FC00000000000007F80
FC1FC00000000000007F80
FC1FC00000000000007F80
FC1FC00000000000007F80
FC1FC00000000000007F80
FE1FC0000000000000FF80
FF1FC0000000000001FF80
FF9FC0000000000003FF00
FFFFC0000000000007FE00
7FFFC000000000000FFC00
3FFFC000000000001FF800
1FFFC000000000003FF000
0FFFC000000000007FE000
07FFC00000000000FFC000
03FFC00000000001FF8000
01FFE00000000003FF0000
00FFF00000000007FE0000
007FF8000000000FFC0000
003FFFFFFFFFFFFFF80000
001FFFFFFFFFFFFFF00000
000FFFFFFFFFFFFFE00000
0007FFFFFFFFFFFFC00000
0003FFFFFFFFFFFF800000
0001FFFFFFFFFFFF000000
0000000000000000000000
0000000000000000000000
0000000000000000000000
0000000000000000000000
0000000000000000000000
0000000000000000000000
0000000000000000000000
0000000000000000000000
0000000000000000000000
0000000000000000000000
0000000000000000000000
0000000000000000000000
0000000000000000000000
0000000000000000000000
ENDCHAR
STARTCHAR char80
ENCODING 80
SWIDTH 2475 0
DWIDTH 99 0
BBX 83 112 0 -12
BITMAP
FFFFFFFFFFFFFFFF000000
FFFFFFFFFFFFFFFFE00000
FFFFFFFFFFFFFFFFF00000
FFFFFFFFFFFFFFFFFE0000
7FFFFFFFFFFFFFFFFF0000
00FFFFFFFFFFFFFFFF8000
007F07F00000000FFFC000
007F07F000000001FFE000
007F07F000000000FFF000
007F07F0000000001FF800
007F07F0000000000FFC00
007F07F00000000007FE00
007F07F00000000003FE00
007F07F00000000001FF00
007F07F00000000000FF00
007F07F000000000007F80
007F07F000000000007F80
007F07F000000000003FC0
007F07F000000000003FC0
007F07F000000000001FE0
007F07F000000000001FE0
007F07F000000000001FE0
007F07F000000000001FE0
007F07F000000000001FE0
007F07F000000000001FE0
007F07F000000000001FE0
007F07F000000000001FE0
007F07F000000000001FE0
007F07F000000000001FE0
007F07F000000000001FE0
007F07F000000000001FE0
007F07F000000000003FC0
007F07F000000000003FC0
007F07F000000000007F80
007F07F000000000007F80
007F07F00000000000FF00
007F07F00000000001FF00
007F07F00000000003FE00
007F07F00000000007FE00
007F07F0000000000FFC00
007F07F0000000001FF800
007F07F000000000FFF000
007F07F000000001FFE000
007F07F00000000FFFC000
007F07FFFFFFFFFFFF8000
007F07FFFFFFFFFFFC0000
007F07FFFFFFFFFFF80000
007F07FFFFFFFFFFF00000
007F07FFFFFFFFFFE00000
007F07FFFFFFFFFF000000
007F07FFFFFFFFFE000000
007F07FFFFFFFFF0000000
007F07FFFFFFFFC0000000
007F07F800000000000000
007F07F000000000000000
007F07F000000000000000
007F07F000000000000000
007F07F000000000000000
007F07F000000000000000
007F07F000000000000000
007F07F000000000000000
007F07F000000000000000
007F07F000000000000000
007F07F000000000000000
007F07F000000000000000
007F07F000000000000000
007F07F000000000000000
007F07F000000000000000
007F07F000000000000000
007F07F000000000000000
007F07F000000000000000
007F07F000000000000000
007F07F000000000000000
007F07F000000000000000
007F07F000000000000000
007F07F000000000000000
007F07F000000000000000
007F07F000000000000000
007F07F000000000000000
007F07F000000000000000
007F07F000000000000000
007F07F000000000000000
007F07F000000000000000
007F07F000000000000000
007F07F000000000000000
007F07F000000000000000
007F07F000000000000000
007F07F000000000000000
007F07F000000000000000
007F07F000000000000000
007F07F000000000000000
007F07F000000000000000
007FFFF800000000000000
FFFFFFFFFC000000000000
FFFFFFFFFE000000000000
FFFFFFFFFE000000000000
FFFFFFFFFE000000000000
FFFFFFFFFE000000000000
0000000000000000000000
0000000000000000000000
0000000000000000000000
0000000000000000000000
0000000000000000000000
0000000000000000000000
0000000000000000000000
0000000000000000000000
0000000000000000000000
0000000000000000000000
0000000000000000000000
0000000000000000000000
0000000000000000000000
0000000000000000000000
ENDCHAR
STARTCHAR char81
ENCODING 81
SWIDTH 2475 0
DWIDTH 99 0
BBX 85 112 0 -12
BITMAP
0001FFFFFFFFFFFF000000
0003FFFFFFFFFFFF800000
0007FFFFFFFFFFFFC00000
000FFFFFFFFFFFFFE00000
001FFFFFFFFFFFFFF00000
003FFFFFFFFFFFFFF80000
007FF8000000000FFC0000
00FFF00000000007FE0000
01FFE00000000003FF0000
03FFC00000000001FF8000
07FFC00000000000FFC000
0FFFC000000000007FE000
1FFFC000000000003FF000
3FFFC000000000001FF800
7FFFC000000000000FFC00
FFFFC0000000000007FE00
FF9FC0000000000003FF00
FF1FC0000000000001FF80
FE1FC0000000000000FF80
FC1FC00000000000007F80
FC1FC00000000000007F80
FC1FC00000000000007F80
FC1FC00000000000007F80
FC1FC00000000000007F80
FC1FC00000000000007F80
FC1FC00000000000007F80
FC1FC00000000000007F80
FC1FC00000000000007F80
FC1FC00000000000007F80
FC1FC00000000000007F80
FC1FC00000000000007F80
FC1FC00000000000007F80
FC1FC00000000000007F80
FC1FC00000000000007F80
FC1FC00000000000007F80
FC1FC00000000000007F80
FC1FC00000000000007F80
FC1FC00000000000007F80
FC1FC00000000000007F80
FC1FC00000000000007F80
FC1FC00000000000007F80
FC1FC00000000000007F80
FC1FC00000000000007F80
FC1FC00000000000007F80
FC1FC00000000000007F80
FC1FC00000000000007F80
FC1FC00000000000007F80
FC1FC00000000000007F80
FC1FC00000000000007F80
FC1FC00000000000007F80
FC1FC00000000000007F80
FC1FC00000000000007F80
FC1FC00000000000007F80
FC1FC00000000000007F80
FC1FC00000000000007F80
FC1FC00000000000007F80
FC1FC00000000000007F80
FC1FC00000000000007F80
FC1FC00000000000007F80
FC1FC00000000000007F80
FC1FC00000000000007F80
FC1FC00000000000007F80
FC1FC00000000000007F80
FC1FC00000000000007F80
FC1FC00000000000007F80
FC1FC00000000000007F80
FC1FC00000000000007F80
FC1FC00000000000007F80
FC1FC00000000000007F80
FC1FC00000000000007F80
FC1FC00000000000007F80
FC1FC00000000000007F80
FC1FC00000000000007F80
FC1FC00000000000007F80
FC1FC00000003FC0007F80
FC1FC00000001FE0007F80
FC1FC00000000FF0007F80
FC1FC000000007F8007F80
FC1FC000000003FC007F80
FE1FC000000001FE00FF80
FF1FC000000000FF01FF80
FF9FC0000000007F83FF00
FFFFC0000000003FFFFE00
7FFFC0000000001FFFFC00
3FFFC0000000000FFFF800
1FFFC00000000007FFF000
0FFFC00000000003FFE000
07FFC00000000001FFC000
03FFC00000000001FFC000
01FFE00000000003FFC000
00FFF00000000007FFC000
007FF8000000000FFFE000
003FFFFFFFFFFFFFFFF000
001FFFFFFFFFFFFFFFF800
000FFFFFFFFFFFFFE3FC00
0007FFFFFFFFFFFFC1FE00
0003FFFFFFFFFFFF80FF00
0001FFFFFFFFFFFF007F80
0000000000000000003FC0
0000000000000000001FE0
0000000000000000000FF0
00000000000000000007F8
0000000000000000000000
0000000000000000000000
0000000000000000000000
0000000000000000000000
0000000000000000000000
0000000000000000000000
0000000000000000000000
0000000000000000000000
0000000000000000000000
0000000000000000000000
ENDCHAR
STARTCHAR char82
ENCODING 82
SWIDTH 2475 0
DWIDTH 99 0
BBX 87 112 0 -12
BITMAP
FFFFFFFFFFFFFFFF000000
FFFFFFFFFFFFFFFFE00000
FFFFFFFFFFFFFFFFF00000
FFFFFFFFFFFFFFFFFE0000
7FFFFFFFFFFFFFFFFF0000
00FFFFFFFFFFFFFFFF8000
007F07F00000000FFFC000
007F07F000000001FFE000
007F07F000000000FFF000
007F07F0000000001FF800
007F07F0000000000FFC00
007F07F00000000007FE00
007F07F00000000003FE00
007F07F00000000001FF00
007F07F00000000000FF00
007F07F000000000007F80
007F07F000000000007F80
007F07F000000000003FC0
007F07F000000000003FC0
007F07F000000000001FE0
007F07F000000000001FE0
007F07F000000000001FE0
007F07F000000000001FE0
007F07F000000000001FE0
007F07F000000000001FE0
007F07F000000000001FE0
007F07F000000000001FE0
007F07F000000000001FE0
007F07F000000000001FE0
007F07F000000000001FE0
007F07F000000000001FE0
007F07F000000000003FC0
007F07F000000000003FC0
007F07F000000000007F80
007F07F000000000007F80
007F07F00000000000FF00
007F07F00000000001FF00
007F07F00000000003FE00
007F07F00000000007FE00
007F07F0000000000FFC00
007F07F0000000001FF800
007F07F000000000FFF000
007F07F000000001FFE000
007F07F00000000FFFC000
007F07FFFFFFFFFFFF8000
007F07FFFFFFFFFFFC0000
007F07FFFFFFFFFFF80000
007F07FFFFFFFFFFF00000
007F07FFFFFFFFFFE00000
007F07FFFFFFFFFFC00000
007F07FFFFFFFFFFC00000
007F07FFFFFFFFFFF80000
007F07FFFFFFFFFFFC0000
007F07FFFFFFFFFFFE0000
007F07F00000000FFF0000
007F07F000000007FF8000
007F07F000000003FFC000
007F07F0000000007FE000
007F07F0000000003FE000
007F07F0000000001FF000
007F07F0000000000FF000
007F07F00000000007F800
007F07F00000000007F800
007F07F00000000003FC00
007F07F00000000003FC00
007F07F00000000001FE00
007F07F00000000001FE00
007F07F00000000001FE00
007F07F00000000001FE00
007F07F00000000001FE00
007F07F00000000001FE00
007F07F00000000001FE00
007F07F00000000001FE00
007F07F00000000001FE00
007F07F00000000001FE00
007F07F00000000001FE00
007F07F00000000001FE00
007F07F00000000001FE00
007F07F00000000001FE00
007F07F00000000001FE00
007F07F00000000001FE00
007F07F00000000001FE00
007F07F00000000001FE00
007F07F00000000001FE00
007F07F00000000000FF00
007F07F00000000000FF00
007F07F00000000000FF00
007F07F00000000000FF00
007F07F00000000000FF00
007F07F00000000000FF00
007F07F00000000000FF00
007F07F00000000000FF00
007FFFF80000000000FF00
FFFFFFFFFC00000000FF80
FFFFFFFFFE00000000FFC0
FFFFFFFFFE00000000FFE0
FFFFFFFFFE00000000FFF0
FFFFFFFFFE00000000FFFE
0000000000000000000000
0000000000000000000000
0000000000000000000000
0000000000000000000000
0000000000000000000000
0000000000000000000000
0000000000000000000000
0000000000000000000000
0000000000000000000000
0000000000000000000000
0000000000000000000000
0000000000000000000000
0000000000000000000000
0000000000000000000000
ENDCHAR
STARTCHAR char83
ENCODING 83
SWIDTH 2275 0
DWIDTH 91 0
BBX 73 112 0 -12
BITMAP
0001FFFFFFFFFFF00000
000FFFFFFFFFFFF80000
001FFFFFFFFFFFFC0000
00FFFFFFFFFFFFFE0000
01FFFFFFFFFFFFFF0000
03FFFFFFFFFFFFFF8000
07FFC000000000FFC000
0FFFC0000000007FE000
1FFFC0000000003FF000
3FFFC0000000001FF800
7F9FC0000000000FFC00
FF1FC00000000007FE00
FE1FC00000000003FF00
FC1FC00000000001FF80
FC1FC00000000000FF80
FC1FC000000000007F80
FC1FC000000000003F80
FC1FC000000000001F80
FC1FC000000000000F80
FC1FC000000000000780
FC1FC000000000000780
FC1FC000000000000380
FC1FC000000000000380
FC1FC000000000000180
FC1FC000000000000180
FC1FC000000000000080
FC1FC000000000000000
FC1FC000000000000000
FC1FC000000000000000
FC1FC000000000000000
FC1FC000000000000000
FC1FC000000000000000
FC1FC000000000000000
FC1FC000000000000000
FC1FC000000000000000
FC1FC000000000000000
FC1FC000000000000000
FE1FC000000000000000
FF1FC000000000000000
7F9FC000000000000000
3FFFC000000000000000
1FFFC000000000000000
0FFFC000000000000000
07FFC000000000000000
03FFF800000000000000
01FFFFFFFFFFFC000000
00FFFFFFFFFFFFC00000
007FFFFFFFFFFFE00000
003FFFFFFFFFFFF00000
0007FFFFFFFFFFFE0000
0003FFFFFFFFFFFF0000
0001FFFFFFFFFFFF8000
00001FFFFFFFFFFFC000
0000000000000FFFE000
00000000000001FFF000
00000000000001FFF800
00000000000001FFFC00
00000000000001FFFE00
00000000000001FCFF00
00000000000001FC7F80
00000000000001FC3F80
00000000000001FC1F80
00000000000001FC1F80
00000000000001FC1F80
00000000000001FC1F80
00000000000001FC1F80
00000000000001FC1F80
00000000000001FC1F80
00000000000001FC1F80
00000000000001FC1F80
00000000000001FC1F80
00000000000001FC1F80
80000000000001FC1F80
C0000000000001FC1F80
C0000000000001FC1F80
E0000000000001FC1F80
E0000000000001FC1F80
F0000000000001FC1F80
F0000000000001FC1F80
F8000000000001FC1F80
FC000000000001FC1F80
FE000000000001FC1F80
FF000000000001FC1F80
FF800000000001FC1F80
FFC00000000001FC1F80
7FE00000000001FC3F80
3FF00000000001FC7F80
1FF80000000001FCFF00
0FFC0000000001FFFE00
07FE0000000001FFFC00
03FF0000000001FFF800
01FF8000000001FFF000
00FFFFFFFFFFFFFFE000
007FFFFFFFFFFFFFC000
003FFFFFFFFFFFFF8000
001FFFFFFFFFFFFC0000
000FFFFFFFFFFFF80000
0007FFFFFFFFFFC00000
00000000000000000000
00000000000000000000
00000000000000000000
00000000000000000000
00000000000000000000
00000000000000000000
00000000000000000000
00000000000000000000
00000000000000000000
00000000000000000000
00000000000000000000
00000000000000000000
00000000000000000000
00000000000000000000
ENDCHAR
STARTCHAR char84
ENCODING 84
SWIDTH 2675 0
DWIDTH 107 0
BBX 89 112 0 -12
BITMAP
FFFFFFFFFFFFFFFFFFFFFF80
FFFFFFFFFFFFFFFFFFFFFF80
FFFFFFFFFFFFFFFFFFFFFF80
FFFFFFFFFFFFFFFFFFFFFF80
FFFFFFFFFFFFFFFFFFFFFF80
FFFFFFFFFFFFFFFFFFFFFF80
FFE000001FC1FC000003FF80
FF0000001FC1FC0000007F80
FE0000001FC1FC0000003F80
FC0000001FC1FC0000001F80
F80000001FC1FC0000000F80
F00000001FC1FC0000000780
F00000001FC1FC0000000780
E00000001FC1FC0000000380
E00000001FC1FC0000000380
C00000001FC1FC0000000180
C00000001FC1FC0000000180
800000001FC1FC0000000080
000000001FC1FC0000000000
000000001FC1FC0000000000
000000001FC1FC0000000000
000000001FC1FC0000000000
000000001FC1FC0000000000
000000001FC1FC0000000000
000000001FC1FC0000000000
000000001FC1FC0000000000
000000001FC1FC0000000000
000000001FC1FC0000000000
000000001FC1FC0000000000
000000001FC1FC0000000000
000000001FC1FC0000000000
000000001FC1FC0000000000
000000001FC1FC0000000000
000000001FC1FC0000000000
000000001FC1FC0000000000
000000001FC1FC0000000000
000000001FC1FC0000000000
000000001FC1FC0000000000
000000001FC1FC0000000000
000000001FC1FC0000000000
000000001FC1FC0000000000
000000001FC1FC0000000000
000000001FC1FC0000000000
000000001FC1FC0000000000
000000001FC1FC0000000000
000000001FC1FC0000000000
000000001FC1FC0000000000
000000001FC1FC0000000000
000000001FC1FC0000000000
000000001FC1FC0000000000
000000001FC1FC0000000000
000000001FC1FC0000000000
000000001FC1FC0000000000
000000001FC1FC0000000000
000000001FC1FC0000000000
000000001FC1FC0000000000
000000001FC1FC0000000000
000000001FC1FC0000000000
000000001FC1FC0000000000
000000001FC1FC0000000000
000000001FC1FC0000000000
000000001FC1FC0000000000
000000001FC1FC0000000000
000000001FC1FC0000000000
000000001FC1FC0000000000
000000001FC1FC0000000000
000000001FC1FC0000000000
000000001FC1FC0000000000
000000001FC1FC0000000000
000000001FC1FC0000000000
000000001FC1FC0000000000
000000001FC1FC0000000000
000000001FC1FC0000000000
000000001FC1FC0000000000
000000001FC1FC0000000000
000000001FC1FC0000000000
000000001FC1FC0000000000
000000001FC1FC0000000000
000000001FC1FC0000000000
000000001FC1FC0000000000
000000001FC1FC0000000000
000000001FC1FC0000000000
000000001FC1FC0000000000
000000001FC1FC0000000000
000000001FC1FC0000000000
000000001FC1FC0000000000
000000001FC1FC0000000000
000000001FC1FC0000000000
000000001FC1FC0000000000
000000001FC1FC0000000000
000000001FC1FC0000000000
000000001FC1FC0000000000
000000001FFFFE0000000000
0000003FFFFFFFFC00000000
0000003FFFFFFFFE00000000
0000003FFFFFFFFE00000000
0000003FFFFFFFFE00000000
0000003FFFFFFFFE00000000
000000000000000000000000
000000000000000000000000
000000000000000000000000
000000000000000000000000
000000000000000000000000
000000000000000000000000
000000000000000000000000
000000000000000000000000
000000000000000000000000
000000000000000000000000
000000000000000000000000
000000000000000000000000
000000000000000000000000
000000000000000000000000
ENDCHAR
STARTCHAR char85
ENCODING 85
SWIDTH 2625 0
DWIDTH 105 0
BBX 93 112 0 -12
BITMAP
FFFFFFFFF80000003FFFFFF8
FFFFFFFFF80000003FFFFFF8
FFFFFFFFF80000003FFFFFF8
FFFFFFFFF80000003FFFFFF8
7FFFFFFFF80000001FFFFFF8
00FFFFF000000000003FF000
007F07F000000000001FF000
007F07F000000000001FE000
007F07F000000000001FE000
007F07F000000000001FE000
007F07F000000000001FE000
007F07F000000000001FE000
007F07F000000000001FE000
007F07F000000000001FE000
007F07F000000000001FE000
007F07F000000000001FE000
007F07F000000000001FE000
007F07F000000000001FE000
007F07F000000000001FE000
007F07F000000000001FE000
007F07F000000000001FE000
007F07F000000000001FE000
007F07F000000000001FE000
007F07F000000000001FE000
007F07F000000000001FE000
007F07F000000000001FE000
007F07F000000000001FE000
007F07F000000000001FE000
007F07F000000000001FE000
007F07F000000000001FE000
007F07F000000000001FE000
007F07F000000000001FE000
007F07F000000000001FE000
007F07F000000000001FE000
007F07F000000000001FE000
007F07F000000000001FE000
007F07F000000000001FE000
007F07F000000000001FE000
007F07F000000000001FE000
007F07F000000000001FE000
007F07F000000000001FE000
007F07F000000000001FE000
007F07F000000000001FE000
007F07F000000000001FE000
007F07F000000000001FE000
007F07F000000000001FE000
007F07F000000000001FE000
007F07F000000000001FE000
007F07F000000000001FE000
007F07F000000000001FE000
007F07F000000000001FE000
007F07F000000000001FE000
007F07F000000000001FE000
007F07F000000000001FE000
007F07F000000000001FE000
007F07F000000000001FE000
007F07F000000000001FE000
007F07F000000000001FE000
007F07F000000000001FE000
007F07F000000000001FE000
007F07F000000000001FE000
007F07F000000000001FE000
007F07F000000000001FE000
007F07F000000000001FE000
007F07F000000000001FE000
007F07F000000000001FE000
007F07F000000000001FE000
007F07F000000000001FE000
007F07F000000000001FE000
007F07F000000000001FE000
007F07F000000000001FE000
007F07F000000000001FE000
007F07F000000000001FE000
007F07F000000000001FE000
007F07F000000000001FE000
007F07F000000000001FE000
007F07F000000000001FE000
007F07F000000000001FE000
007F07F000000000001FE000
007F87F000000000001FE000
007FC7F000000000001FE000
007FE7F000000000003FE000
003FFFF000000000007FE000
001FFFF00000000000FFC000
000FFFF00000000001FF8000
0007FFF00000000003FF0000
0003FFF00000000007FE0000
0001FFF0000000000FFC0000
0000FFF0000000001FF80000
00007FF8000000003FF00000
00003FFC000000007FE00000
00001FFE00000000FFC00000
00000FFFFFFFFFFFFF800000
000007FFFFFFFFFFFF000000
000003FFFFFFFFFFFE000000
000001FFFFFFFFFFFC000000
000000FFFFFFFFFFF8000000
0000007FFFFFFFFFF0000000
000000000000000000000000
000000000000000000000000
000000000000000000000000
000000000000000000000000
000000000000000000000000
000000000000000000000000
000000000000000000000000
000000000000000000000000
000000000000000000000000
000000000000000000000000
000000000000000000000000
000000000000000000000000
000000000000000000000000
000000000000000000000000
ENDCHAR
STARTCHAR char86
ENCODING 86
SWIDTH 2925 0
DWIDTH 117 0
BBX 99 112 0 -12
BITMAP
FFFFFFFFFF800000003FFFFFE0
FFFFFFFFFF800000003FFFFFE0
FFFFFFFFFF800000003FFFFFE0
FFFFFFFFFF800000003FFFFFE0
7FFFFFFFFF800000001FFFFFE0
00FFFFFF0000000000003FC000
003FC0FF0000000000001FC000
001FC07F0000000000001FC000
001FC07F0000000000001FC000
001FC07F0000000000001F8000
000FC03F0000000000001F8000
000FE03F8000000000003F8000
000FE03F8000000000003F8000
0007E01F8000000000003F0000
0007F01FC000000000007F0000
0007F01FC000000000007F0000
0003F00FC000000000007E0000
0003F80FE00000000000FE0000
0003F80FE00000000000FE0000
0001F807E00000000000FC0000
0001FC07F00000000001FC0000
0001FC07F00000000001FC0000
0000FC03F00000000001F80000
0000FE03F80000000003F80000
0000FE03F80000000003F80000
00007E01F80000000003F00000
00007F01FC0000000007F00000
00007F01FC0000000007F00000
00003F00FC0000000007E00000
00003F80FE000000000FE00000
00003F80FE000000000FE00000
00001F807E000000000FC00000
00001FC07F000000001FC00000
00001FC07F000000001FC00000
00000FC03F000000001F800000
00000FE03F800000003F800000
00000FE03F800000003F800000
000007E01F800000003F000000
000007F01FC00000007F000000
000007F01FC00000007F000000
000003F00FC00000007E000000
000003F80FE0000000FE000000
000003F80FE0000000FE000000
000001F807E0000000FC000000
000001FC07F0000001FC000000
000001FC07F0000001FC000000
000000FC03F0000001F8000000
000000FE03F8000003F8000000
000000FE03F8000003F8000000
0000007E01F8000003F0000000
0000007F01FC000007F0000000
0000007F01FC000007F0000000
0000003F00FC000007E0000000
0000003F80FE00000FE0000000
0000003F80FE00000FE0000000
0000001F807E00000FC0000000
0000001FC07F00001FC0000000
0000001FC07F00001FC0000000
0000000FC03F00001F80000000
0000000FE03F80003F80000000
0000000FE03F80003F80000000
00000007E01F80003F00000000
00000007F01FC0007F00000000
00000007F01FC0007F00000000
00000003F00FC0007E00000000
00000003F80FE000FE00000000
00000003F80FE000FE00000000
00000001F807E000FC00000000
00000001FC07F001FC00000000
00000001FC07F001FC00000000
00000000FC03F001F800000000
00000000FE03F803F800000000
00000000FE03F803F800000000
000000007E01F803F000000000
000000007F01FC07F000000000
000000007F01FC07F000000000
000000003F00FC07E000000000
000000003F80FE0FE000000000
000000003F80FE0FE000000000
000000001F807E0FC000000000
000000001FC07F1FC000000000
000000001FC07F1FC000000000
000000000FC03FFFC000000000
000000000FE03FFF8000000000
000000000FE03FFF8000000000
0000000007E01FFF0000000000
0000000007F01FFF0000000000
0000000007F01FFF0000000000
0000000003F00FFE0000000000
0000000003F80FFE0000000000
0000000003F80FFE0000000000
0000000001FC07FC0000000000
0000000001FFFFFE0000000000
00000003FFFFFFFFFC00000000
00000003FFFFFFFFFE00000000
00000003FFFFFFFFFE00000000
00000003FFFFFFFFFE00000000
00000003FFFFFFFFFE00000000
00000000000000000000000000
00000000000000000000000000
00000000000000000000000000
00000000000000000000000000
00000000000000000000000000
00000000000000000000000000
00000000000000000000000000
00000000000000000000000000
00000000000000000000000000
00000000000000000000000000
00000000000000000000000000
00000000000000000000000000
00000000000000000000000000
00000000000000000000000000
ENDCHAR
STARTCHAR char87
ENCODING 87
SWIDTH 4725 0
DWIDTH 189 0
BBX 171 112 0 -12
BITMAP
FFFFFFFFFF80000000000000000000000000FFFFFFE0
FFFFFFFFFF80000000000000000000000000FFFFFFE0
FFFFFFFFFF800000000003FFC00000000000FFFFFFE0
FFFFFFFFFF800000000007FFE00000000000FFFFFFE0
7FFFFFFFFF800000000007FFE000000000007FFFFFE0
00FFFFFF0000000000000FFFE0000000000000FFC000
003FC0FF0000000000000FFFF00000000000007F8000
001FC07F0000000000000FFFF00000000000007F0000
001FC07F0000000000001FFFF00000000000007F0000
001FC07F0000000000001FFFF80000000000007F0000
000FC03F0000000000001FFFF80000000000007E0000
000FE03F8000000000003FFFF8000000000000FE0000
000FE03F8000000000003F87FC000000000000FE0000
0007E01F8000000000003F07FC000000000000FC0000
0007F01FC000000000007F03FC000000000001FC0000
0007F01FC000000000007F03FE000000000001FC0000
0003F00FC000000000007E03FE000000000001F80000
0003F80FE00000000000FE01FE000000000003F80000
0003F80FE00000000000FE01FF000000000003F80000
0001F807E00000000000FC01FF000000000003F00000
0001FC07F00000000001FC00FF000000000007F00000
0001FC07F00000000001FC00FF800000000007F00000
0000FC03F00000000001F800FF800000000007E00000
0000FE03F80000000003F8007F80000000000FE00000
0000FE03F80000000003F8007FC0000000000FE00000
00007E01F80000000003F0007FC0000000000FC00000
00007F01FC0000000007F0003FC0000000001FC00000
00007F01FC0000000007F0003FE0000000001FC00000
00003F00FC0000000007E0003FE0000000001F800000
00003F80FE000000000FE0001FE0000000003F800000
00003F80FE000000000FE0001FF0000000003F800000
00001F807E000000000FC0001FF0000000003F000000
00001FC07F000000001FC0000FF0000000007F000000
00001FC07F000000001FC0000FF8000000007F000000
00000FC03F000000001F80000FF8000000007E000000
00000FE03F800000003F800007F800000000FE000000
00000FE03F800000003F800007FC00000000FE000000
000007E01F800000003F000007FC00000000FC000000
000007F01FC00000007F000003FC00000001FC000000
000007F01FC00000007F000003FE00000001FC000000
000003F00FC00000007E000003FE00000001F8000000
000003F80FE0000000FE000001FE00000003F8000000
000003F80FE0000000FE000001FF00000003F8000000
000001F807E0000000FC000001FF00000003F0000000
000001FC07F0000001FC000000FF00000007F0000000
000001FC07F0000001FC000000FF80000007F0000000
000000FC03F0000001F8000000FF80000007E0000000
000000FE03F8000003F80000007F8000000FE0000000
000000FE03F8000003F80000007FC000000FE0000000
0000007E01F8000003F00000007FC000000FC0000000
0000007F01FC000007F00000003FC000001FC0000000
0000007F01FC000007F00000003FE000001FC0000000
0000003F00FC000007E00000003FE000001F80000000
0000003F80FE00000FE00000001FE000003F80000000
0000003F80FE00000FE00000001FF000003F80000000
0000001F807E00000FC00000001FF000003F00000000
0000001FC07F00001FC00000000FF000007F00000000
0000001FC07F00001FC00000000FF800007F00000000
0000000FC03F00001F800000000FF800007E00000000
0000000FE03F80003F8000000007F80000FE00000000
0000000FE03F80003F8000000007FC0000FE00000000
00000007E01F80003F0000000007FC0000FC00000000
00000007F01FC0007F0000000003FC0001FC00000000
00000007F01FC0007F0000000003FE0001FC00000000
00000003F00FC0007E0000000003FE0001F800000000
00000003F80FE000FE0000000001FE0003F800000000
00000003F80FE000FE0000000001FF0003F800000000
00000001F807E000FC0000000001FF0003F000000000
00000001FC07F001FC0000000000FF0007F000000000
00000001FC07F001FC0000000000FF8007F000000000
00000000FC03F001F80000000000FF8007E000000000
00000000FE03F803F800000000007F800FE000000000
00000000FE03F803F800000000007FC00FE000000000
000000007E01F803F000000000007FC00FC000000000
000000007F01FC07F000000000003FC01FC000000000
000000007F01FC07F000000000003FE01FC000000000
000000003F00FC07E000000000003FE01F8000000000
000000003F80FE0FE000000000001FE03F8000000000
000000003F80FE0FE000000000001FF03F8000000000
000000001F807E0FC000000000001FF03F0000000000
000000001FC07F1FC000000000000FF03F0000000000
000000001FC07F1FC000000000000FF87F0000000000
000000000FC03FFFC000000000000FF87E0000000000
000000000FE03FFF80000000000007FC7E0000000000
000000000FE03FFF80000000000007FFFE0000000000
0000000007E01FFF00000000000007FFFC0000000000
0000000007F01FFF00000000000003FFFC0000000000
0000000007F01FFF00000000000003FFFC0000000000
0000000003F00FFE00000000000003FFF80000000000
0000000003F80FFE00000000000001FFF80000000000
0000000003F80FFE00000000000001FFF80000000000
0000000001FC07FC00000000000001FFF00000000000
0000000001FFFFFE00000000000001FFF80000000000
00000003FFFFFFFFFC0000000003FFFFFFF000000000
00000003FFFFFFFFFE0000000003FFFFFFF800000000
00000003FFFFFFFFFE0000000003FFFFFFF800000000
00000003FFFFFFFFFE0000000003FFFFFFF800000000
00000003FFFFFFFFFE0000000003FFFFFFF800000000
00000000000000000000000000000000000000000000
00000000000000000000000000000000000000000000
00000000000000000000000000000000000000000000
00000000000000000000000000000000000000000000
00000000000000000000000000000000000000000000
00000000000000000000000000000000000000000000
00000000000000000000000000000000000000000000
00000000000000000000000000000000000000000000
00000000000000000000000000000000000000000000
00000000000000000000000000000000000000000000
00000000000000000000000000000000000000000000
00000000000000000000000000000000000000000000
00000000000000000000000000000000000000000000
00000000000000000000000000000000000000000000
ENDCHAR
STARTCHAR char88
ENCODING 88
SWIDTH 3025 0
DWIDTH 121 0
BBX 103 112 0 -12
BITMAP
3FFFFFFE00000000FFFFFFFFFE
3FFFFFFE00000000FFFFFFFFFE
3FFFFFFE00000000FFFFFFFFFE
3FFFFFFE00000000FFFFFFFFFE
1FFFFFFC000000007FFFFFFFFE
003FF8000000000000FFFFFC00
000FF00000000000007F07F800
0007F80000000000007F07F000
0003FC0000000000007E07F000
0001FE000000000000FE07E000
0000FF000000000001FE07E000
00007F800000000003FC0FC000
00007F800000000007F80FC000
00003FC0000000000FF01FC000
00003FC0000000000FE01F8000
00001FE0000000001FC03F8000
00000FF0000000001FC07F8000
000007F8000000003F80FF0000
000003FC000000007F81FE0000
000001FE00000000FF03FC0000
000000FF00000001FE03F80000
0000007F80000003FC07F00000
0000007FC0000003F807F00000
0000003FE0000007F00FE00000
0000003FE0000007F01FE00000
0000001FF000000FE03FC00000
0000000FF000001FE07F800000
00000007F800003FC0FF000000
00000003FC00007F80FE000000
00000001FE0000FF01FC000000
00000000FF0000FE01FC000000
000000007F8001FC03F8000000
000000003FC001FC07F8000000
000000001FE003F80FF0000000
000000001FF007F81FE0000000
000000000FF80FF03FC0000000
000000000FF81FE03F80000000
0000000007FC3FC07F00000000
0000000003FC3F807F00000000
0000000001FE7F00FE00000000
0000000000FFFF01FE00000000
00000000007FFE03FC00000000
00000000003FFE07F800000000
00000000001FFC0FF000000000
00000000001FF80FE000000000
00000000001FF01FC000000000
00000000001FE01FC000000000
00000000003FC03F8000000000
00000000003F807F8000000000
00000000007F00FF0000000000
00000000007E01FE0000000000
0000000000FC03FC0000000000
0000000001FC07F80000000000
0000000003F80FF00000000000
0000000007F81FF00000000000
000000000FF03FF80000000000
000000000FE03FFC0000000000
000000001FC07FFE0000000000
000000001FC07FFF0000000000
000000003F80FFFF8000000000
000000007F81FFFF8000000000
00000000FF03FFFFC000000000
00000001FE07F83FC000000000
00000003FC0FF01FE000000000
00000003F80FE00FF000000000
00000007F01FC007F800000000
00000007F01FC003FC00000000
0000000FE03F8001FE00000000
0000001FE07F8000FF00000000
0000003FC0FF00007F80000000
0000007F81FE00007FC0000000
000000FF03FC00003FE0000000
000000FE03F800003FE0000000
000001FC07F000001FF0000000
000001FC07F000000FF0000000
000003F80FE0000007F8000000
000007F81FE0000003FC000000
00000FF03FC0000001FE000000
00001FE07F80000000FF000000
00003FC0FF000000007F800000
00003F80FE000000003FC00000
00007F01FC000000001FE00000
00007F01FC000000001FF00000
0000FE03F8000000000FF80000
0001FE07F8000000000FF80000
0003FC0FF00000000007FC0000
0007F81FE00000000003FC0000
000FF03FC00000000001FE0000
000FE07F800000000000FF0000
001FC0FF0000000000007F8000
001FC0FE0000000000003FC000
003FC1FC0000000000001FE000
007FFFFE0000000000001FF800
FFFFFFFFFC000000003FFFFFF0
FFFFFFFFFE000000003FFFFFF8
FFFFFFFFFE000000003FFFFFF8
FFFFFFFFFE000000003FFFFFF8
FFFFFFFFFE000000003FFFFFF8
00000000000000000000000000
00000000000000000000000000
00000000000000000000000000
00000000000000000000000000
00000000000000000000000000
00000000000000000000000000
00000000000000000000000000
00000000000000000000000000
00000000000000000000000000
00000000000000000000000000
00000000000000000000000000
00000000000000000000000000
00000000000000000000000000
00000000000000000000000000
ENDCHAR
STARTCHAR char89
ENCODING 89
SWIDTH 2525 0
DWIDTH 101 0
BBX 83 112 0 -12
BITMAP
FFFFFFFFF800003FFFFFE0
FFFFFFFFF800003FFFFFE0
FFFFFFFFF800003FFFFFE0
FFFFFFFFF800003FFFFFE0
7FFFFFFFF800001FFFFFE0
00FFFFF0000000003FC000
007F03F0000000001FC000
003F81F8000000001FC000
003F81FC000000001F8000
001FC0FE000000003F8000
000FC0FE000000007F8000
0007E07F00000000FF0000
0007F03F00000000FF0000
0003F81F80000001FE0000
0003F81FC0000001FE0000
0001FC0FE0000003FC0000
0000FC0FF0000007F80000
00007E07F800000FF00000
00007F03F800000FF00000
00003F81FC00001FE00000
00003F81FC00001FE00000
00001FC0FE00003FC00000
00000FC0FF00007F800000
000007E07F8000FF000000
000007F03F8000FF000000
000003F81FC001FE000000
000003F80FC001FE000000
000001FC07E003FC000000
000000FC07F007F8000000
0000007E03F80FF0000000
0000007F03F80FF0000000
0000003F81FC1FE0000000
0000003F80FC1FE0000000
0000001FC07E3FC0000000
0000000FC07FFF80000000
00000007E03FFF00000000
00000007F03FFF00000000
00000003F81FFE00000000
00000003F81FFE00000000
00000001FC1FFC00000000
00000000FC1FF800000000
000000007E3FF000000000
000000007FFFF000000000
000000003FFFE000000000
000000003FFFE000000000
000000001FFFC000000000
000000000FFF8000000000
0000000007FF0000000000
0000000007FF0000000000
0000000003FF0000000000
0000000003FF0000000000
0000000001FF0000000000
0000000001FF0000000000
0000000001FF0000000000
0000000001FF0000000000
0000000001FF0000000000
0000000001FF0000000000
0000000001FF0000000000
0000000001FF0000000000
0000000001FF0000000000
0000000001FF0000000000
0000000001FF0000000000
0000000001FF0000000000
0000000001FF0000000000
0000000001FF0000000000
0000000001FF0000000000
0000000001FF0000000000
0000000001FF0000000000
0000000001FF0000000000
0000000001FF0000000000
0000000001FF0000000000
0000000001FF0000000000
0000000001FF0000000000
0000000001FF0000000000
0000000001FF0000000000
0000000001FF0000000000
0000000001FF0000000000
0000000001FF0000000000
0000000001FF0000000000
0000000001FF0000000000
0000000001FF0000000000
0000000001FF0000000000
0000000001FF0000000000
0000000001FF0000000000
0000000001FF0000000000
0000000001FF0000000000
0000000001FF0000000000
0000000001FF0000000000
0000000001FF0000000000
0000000001FF0000000000
0000000001FF0000000000
0000000001FF0000000000
0000000001FF8000000000
00000003FFFFFF00000000
00000003FFFFFF80000000
00000003FFFFFF80000000
00000003FFFFFF80000000
00000003FFFFFF80000000
0000000000000000000000
0000000000000000000000
0000000000000000000000
0000000000000000000000
0000000000000000000000
0000000000000000000000
0000000000000000000000
0000000000000000000000
0000000000000000000000
0000000000000000000000
0000000000000000000000
0000000000000000000000
0000000000000000000000
0000000000000000000000
ENDCHAR
STARTCHAR char90
ENCODING 90
SWIDTH 2775 0
DWIDTH 111 0
BBX 93 112 0 -12
BITMAP
FFFFFFFFFFFFFFFFFFFFFFF8
FFFFFFFFFFFFFFFFFFFFFFF8
FFFFFFFFFFFFFFFFFFFFFFF8
FFFFFFFFFFFFFFFFFFFFFFF8
FFFFFFFFFFFFFFFFFFFFFFF8
FFFFFFFFFFFFFFFFFFFFFFF8
FF800000000000000001FE78
FF000000000000000003FC78
FE000000000000000007F878
FC00000000000000000FF078
F800000000000000001FE078
F000000000000000003FC078
F000000000000000007F8078
E00000000000000000FF00F8
E00000000000000001FE01F8
C00000000000000003FC03F8
C00000000000000007F807F8
80000000000000000FF00FF0
00000000000000001FE01FE0
00000000000000003FC03FC0
00000000000000007F807F80
0000000000000000FF00FF00
0000000000000001FE01FE00
0000000000000003FC03FC00
0000000000000007F807F800
000000000000000FF00FF000
000000000000001FE01FE000
000000000000003FC03FC000
000000000000007F807F8000
00000000000000FF00FF0000
00000000000001FE01FE0000
00000000000003FC03FC0000
00000000000007F807F80000
0000000000000FF00FF00000
0000000000001FE01FE00000
0000000000003FC03FC00000
0000000000007F807F800000
000000000000FF00FF000000
000000000001FE01FE000000
000000000003FC03FC000000
000000000007F807F8000000
00000000000FF00FF0000000
00000000001FE01FE0000000
00000000003FC03FC0000000
0000000000FF807FE0000000
00000007FFFF00FFFFC00000
0000001FFFFE01FFFFE00000
0000003FFFFC03FFFFC00000
0000007FFFF807FFFF800000
000000FFFFF00FFFFF000000
000001FFFFE01FFFFE000000
000003FFFFC03FFFFC000000
000001FFFF807FFFF0000000
00000003FF00FF8000000000
00000001FE01FE0000000000
00000003FC03FC0000000000
00000007F807F80000000000
0000000FF00FF00000000000
0000001FE01FE00000000000
0000003FC03FC00000000000
0000007F807F800000000000
000000FF00FF000000000000
000001FE01FE000000000000
000003FC03FC000000000000
000007F807F8000000000000
00000FF00FF0000000000000
00001FE01FE0000000000000
00003FC03FC0000000000000
00007F807F80000000000000
0000FF00FF00000000000000
0001FE01FE00000000000000
0003FC03FC00000000000000
0007F807F800000000000000
000FF00FF000000000000000
001FE01FE000000000000000
003FC03FC000000000000000
007F807F8000000000000000
00FF00FF0000000000000000
01FE01FE0000000000000000
03FC03FC0000000000000000
07F807F80000000000000008
0FF00FF00000000000000018
1FE01FE00000000000000018
3FC03FC00000000000000038
7F807F800000000000000038
FF00FF000000000000000078
FE01FE000000000000000078
FC03FC0000000000000000F8
F807F80000000000000001F8
F00FF00000000000000003F8
F01FE00000000000000007F8
F03FC0000000000000000FF8
FFFFFFFFFFFFFFFFFFFFFFF8
FFFFFFFFFFFFFFFFFFFFFFF8
FFFFFFFFFFFFFFFFFFFFFFF8
FFFFFFFFFFFFFFFFFFFFFFF8
FFFFFFFFFFFFFFFFFFFFFFF8
FFFFFFFFFFFFFFFFFFFFFFF8
000000000000000000000000
000000000000000000000000
000000000000000000000000
000000000000000000000000
000000000000000000000000
000000000000000000000000
000000000000000000000000
000000000000000000000000
000000000000000000000000
000000000000000000000000
000000000000000000000000
000000000000000000000000
000000000000000000000000
000000000000000000000000
ENDCHAR
STARTCHAR char92
ENCODING 92
SWIDTH 2225 0
DWIDTH 89 0
BBX 79 112 0 -12
BITMAP
00000000000000000000
00000000000000000000
00000000000000000000
00000000000000000000
00000000000000000000
00000000000000000000
00000000000000000000
00000000000000000000
00000000000000000000
00000000000000000000
00000000000000000000
00000000000000000000
00000000000000000000
00000000000000000000
00000003000000000000
00000003800000000000
00000003C00000000000
00000003E00000000000
00000003F00000000000
00000003F80000000000
00000003FC0000000000
00000003FF8000000000
00000003FFC000000000
00000007FFE000000000
00000007FFF000000000
00000007FFFE00000000
00000007FFFF00000000
00000007FFFF80000000
00000007FFFFC0000000
00000007FFFFF8000000
0000000FFFFFFC000000
7FFFFFFFFFFFFF800000
FFFFFFFFFFFFFFC00000
FFFFFFFFFFFFFFF80000
FFFFFFFFFFFFFFFC0000
FFFFFFFFFFFFFFFF8000
FFFFFFFFFFFFFFFFC000
FFFFFFFFFFFFFFFFF800
07FFFFFFFFFFFFFFFC00
0000000000000003FFE0
00000000000000000FF0
0000000000000000007E
0000000000000000007E
0000000000000000007E
0000000000000000007E
00000000000000000FF0
0000000000000000FFE0
1FFFFFFFFFFFFFFFFC00
FFFFFFFFFFFFFFFFF800
FFFFFFFFFFFFFFFFC000
FFFFFFFFFFFFFFFF8000
FFFFFFFFFFFFFFFC0000
FFFFFFFFFFFFFFF80000
FFFFFFFFFFFFFFC00000
3FFFFFFFFFFFFF800000
0000001FFFFFFC000000
00000007FFFFF8000000
00000007FFFFC0000000
00000007FFFF80000000
00000007FFFF00000000
00000007FFFE00000000
00000007FFF000000000
00000007FFE000000000
00000007FFC000000000
00000007FF8000000000
00000003FC0000000000
00000003F80000000000
00000003F00000000000
00000003E00000000000
00000003C00000000000
00000003800000000000
00000003000000000000
00000000000000000000
00000000000000000000
00000000000000000000
00000000000000000000
00000000000000000000
00000000000000000000
00000000000000000000
00000000000000000000
00000000000000000000
00000000000000000000
00000000000000000000
00000000000000000000
00000000000000000000
00000000000000000000
00000000000000000000
00000000000000000000
00000000000000000000
00000000000000000000
00000000000000000000
00000000000000000000
00000000000000000000
00000000000000000000
00000000000000000000
00000000000000000000
00000000000000000000
00000000000000000000
00000000000000000000
00000000000000000000
00000000000000000000
00000000000000000000
00000000000000000000
00000000000000000000
00000000000000000000
00000000000000000000
00000000000000000000
00000000000000000000
00000000000000000000
00000000000000000000
00000000000000000000
00000000000000000000
ENDCHAR
STARTCHAR char108
ENCODING 108
SWIDTH 2275 0
DWIDTH 91 0
BBX 81 112 0 -12
BITMAP
E003800E00380000000000
F003C00F003C0000000000
F003C00F003C0000000000
7801E007801E0000000000
7801E007801E0000000000
3C00F003C00F0000000000
3C00F003C00F0000000000
1E007801E0078000000000
1F007C01F007C000000000
0F803E00F803E000000000
0FC03F00FC03F000000000
07E01F807E01F800000000
03F00FC03F00FC00000000
01F807E01F807E00000000
00FC03F00FC03F00000000
007E01F807E01F80000000
003F00FC03F00FC0000000
001F807E01F807E0000000
000FC03F00FC03F0000000
0007E01F807E01F8000000
0003F00FC03F00FC000000
0001F807E01F807E000000
0000FC03F00FC03F000000
00007E01F807E01F800000
00003F00FC03F00FC00000
00001FE07F81FE07F80000
00000FF03FC0FF03FC0000
000001FE07F81FE07F8000
000000FF03FC0FF03FC000
0000001F807E01F807E000
0000001FFFFFFFFFFFF000
0000001FFFFFFFFFFFFF80
0000001FFFFFFFFFFFFF80
0000001FFFFFFFFFFFFF80
0000000FFFFFFFFFFFFF80
0000000FFFFFFFFFFFFF80
0000000FFFFFFFFFFFFF80
0000000FFFFFFFFFFFFF80
0000000000000000000000
0000000000000000000000
0000000000000000000000
0000000000000000000000
0000000000000000000000
0000000000000000000000
0000000000000000000000
0000000000000000000000
0000000000000000000000
0000000000000000000000
0000000FFFFFFFFFFFFF80
0000000FFFFFFFFFFFFF80
0000000FFFFFFFFFFFFF80
0000000FFFFFFFFFFFFF80
0000001FFFFFFFFFFFFF80
0000001FFFFFFFFFFFFF80
0000001FFFFFFFFFFFFF80
0000001FFFFFFFFFFFF000
0000001F807E01F807E000
000000FF03FC0FF03FC000
000001FE07F81FE07F8000
00000FF03FC0FF03FC0000
00001FE07F81FE07F80000
00003F00FC03F00FC00000
00007E01F807E01F800000
0000FC03F00FC03F000000
0001F807E01F807E000000
0003F00FC03F00FC000000
0007E01F807E01F8000000
000FC03F00FC03F0000000
001F807E01F807E0000000
003F00FC03F00FC0000000
007E01F807E01F80000000
00FC03F00FC03F00000000
01F807E01F807E00000000
03F00FC03F00FC00000000
07E01F807E01F800000000
0FC03F00FC03F000000000
0F803E00F803E000000000
1F007C01F007C000000000
1E007801E0078000000000
3C00F003C00F0000000000
3C00F003C00F0000000000
7801E007801E0000000000
7801E007801E0000000000
F003C00F003C0000000000
F003C00F003C0000000000
E003800E00380000000000
0000000000000000000000
0000000000000000000000
0000000000000000000000
0000000000000000000000
0000000000000000000000
0000000000000000000000
0000000000000000000000
0000000000000000000000
0000000000000000000000
0000000000000000000000
0000000000000000000000
0000000000000000000000
0000000000000000000000
0000000000000000000000
0000000000000000000000
0000000000000000000000
0000000000000000000000
0000000000000000000000
0000000000000000000000
0000000000000000000000
0000000000000000000000
0000000000000000000000
0000000000000000000000
0000000000000000000000
0000000000000000000000
0000000000000000000000
ENDCHAR
STARTCHAR char114
ENCODING 114
SWIDTH 2325 0
DWIDTH 93 0
BBX 81 112 0 -12
BITMAP
000000000E003800E00380
000000001E007801E00780
000000001E007801E00780
000000003C00F003C00F00
000000003C00F003C00F00
000000007801E007801E00
000000007801E007801E00
00000000F003C00F003C00
00000001F007C01F007C00
00000003E00F803E00F800
00000007E01F807E01F800
0000000FC03F00FC03F000
0000001F807E01F807E000
0000003F00FC03F00FC000
0000007E01F807E01F8000
000000FC03F00FC03F0000
000001F807E01F807E0000
000003F00FC03F00FC0000
000007E01F807E01F80000
00000FC03F00FC03F00000
00001F807E01F807E00000
00003F00FC03F00FC00000
00007E01F807E01F800000
0000FC03F00FC03F000000
0001F807E01F807E000000
000FF03FC0FF03FC000000
001FE07F81FE07F8000000
00FF03FC0FF03FC0000000
01FE07F81FE07F80000000
03F00FC03F00FC00000000
07FFFFFFFFFFFC00000000
FFFFFFFFFFFFFC00000000
FFFFFFFFFFFFFC00000000
FFFFFFFFFFFFFC00000000
FFFFFFFFFFFFF800000000
FFFFFFFFFFFFF800000000
FFFFFFFFFFFFF800000000
FFFFFFFFFFFFF800000000
0000000000000000000000
0000000000000000000000
0000000000000000000000
0000000000000000000000
0000000000000000000000
0000000000000000000000
0000000000000000000000
0000000000000000000000
0000000000000000000000
0000000000000000000000
FFFFFFFFFFFFF800000000
FFFFFFFFFFFFF800000000
FFFFFFFFFFFFF800000000
FFFFFFFFFFFFF800000000
FFFFFFFFFFFFFC00000000
FFFFFFFFFFFFFC00000000
FFFFFFFFFFFFFC00000000
07FFFFFFFFFFFC00000000
03F00FC03F00FC00000000
01FE07F81FE07F80000000
00FF03FC0FF03FC0000000
001F807F81FE07F8000000
000FC03FC0FF03FC000000
0001F807E01F807E000000
0000FC03F00FC03F000000
00007E01F807E01F800000
00003F00FC03F00FC00000
00001F807E01F807E00000
00000FC03F00FC03F00000
000007E01F807E01F80000
000003F00FC03F00FC0000
000001F807E01F807E0000
000000FC03F00FC03F0000
0000007E01F807E01F8000
0000003F00FC03F00FC000
0000001F807E01F807E000
0000000FC03F00FC03F000
00000007E01F807E01F800
00000003E00F803E00F800
00000001F007C01F007C00
00000000F003C00F003C00
000000007801E007801E00
000000007801E007801E00
000000003C00F003C00F00
000000003C00F003C00F00
000000001E007801E00780
000000001E007801E00780
000000000E003800E00380
0000000000000000000000
0000000000000000000000
0000000000000000000000
0000000000000000000000
0000000000000000000000
0000000000000000000000
0000000000000000000000
0000000000000000000000
0000000000000000000000
0000000000000000000000
0000000000000000000000
0000000000000000000000
0000000000000000000000
0000000000000000000000
0000000000000000000000
0000000000000000000000
0000000000000000000000
0000000000000000000000
0000000000000000000000
0000000000000000000000
0000000000000000000000
0000000000000000000000
0000000000000000000000
0000000000000000000000
0000000000000000000000
0000000000000000000000
ENDCHAR
ENDFONT
